<svg width="60" height="60" viewBox="0 0 60 60" fill="none" xmlns="http://www.w3.org/2000/svg">
<circle cx="30" cy="30" r="30" fill="#00B17F"/>
<path d="M25 29.75C25.3542 29.75 25.6513 29.63 25.8913 29.39C26.1313 29.15 26.2508 28.8533 26.25 28.5C26.25 28.1458 26.13 27.8488 25.89 27.6088C25.65 27.3688 25.3533 27.2492 25 27.25C24.6458 27.25 24.3488 27.37 24.1088 27.61C23.8688 27.85 23.7492 28.1467 23.75 28.5C23.75 28.8542 23.87 29.1513 24.11 29.3913C24.35 29.6313 24.6467 29.7508 25 29.75ZM30 29.75C30.3542 29.75 30.6513 29.63 30.8913 29.39C31.1313 29.15 31.2508 28.8533 31.25 28.5C31.25 28.1458 31.13 27.8488 30.89 27.6088C30.65 27.3688 30.3533 27.2492 30 27.25C29.6458 27.25 29.3487 27.37 29.1087 27.61C28.8687 27.85 28.7492 28.1467 28.75 28.5C28.75 28.8542 28.87 29.1513 29.11 29.3913C29.35 29.6313 29.6467 29.7508 30 29.75ZM35 29.75C35.3542 29.75 35.6512 29.63 35.8912 29.39C36.1312 29.15 36.2508 28.8533 36.25 28.5C36.25 28.1458 36.13 27.8488 35.89 27.6088C35.65 27.3688 35.3533 27.2492 35 27.25C34.6458 27.25 34.3487 27.37 34.1087 27.61C33.8687 27.85 33.7492 28.1467 33.75 28.5C33.75 28.8542 33.87 29.1513 34.11 29.3913C34.35 29.6313 34.6467 29.7508 35 29.75ZM17.5 43.5V21C17.5 20.3125 17.745 19.7238 18.235 19.2338C18.725 18.7438 19.3133 18.4992 20 18.5H40C40.6875 18.5 41.2763 18.745 41.7663 19.235C42.2563 19.725 42.5008 20.3133 42.5 21V36C42.5 36.6875 42.255 37.2763 41.765 37.7663C41.275 38.2563 40.6867 38.5008 40 38.5H22.5L17.5 43.5Z" fill="white"/>
</svg>
