<svg width="29" height="29" viewBox="0 0 29 29" fill="none" xmlns="http://www.w3.org/2000/svg">
<path d="M23.5075 24.4468C23.5075 24.8651 23.4146 25.2951 23.2171 25.7134C23.0195 26.1317 22.7639 26.5267 22.4269 26.8986C21.8575 27.526 21.2301 27.9792 20.5213 28.2697C19.8241 28.5602 19.0688 28.7113 18.2554 28.7113C17.0702 28.7113 15.8037 28.4324 14.4674 27.863C13.1311 27.2936 11.7949 26.5267 10.4702 25.5623C9.13396 24.5863 7.86741 23.5056 6.65896 22.3088C5.46213 21.1003 4.3815 19.8338 3.41706 18.5091C2.46424 17.1845 1.69734 15.8599 1.1396 14.5468C0.581852 13.2222 0.302979 11.9556 0.302979 10.7472C0.302979 9.95704 0.442415 9.20176 0.721288 8.50457C1.00016 7.79577 1.44171 7.14507 2.05756 6.56408C2.80122 5.83204 3.6146 5.47183 4.47446 5.47183C4.79981 5.47183 5.12516 5.54155 5.41565 5.68098C5.71776 5.82042 5.98502 6.02957 6.19417 6.33169L8.88995 10.1313C9.0991 10.4218 9.25016 10.6891 9.35473 10.9447C9.45931 11.1887 9.51741 11.4327 9.51741 11.6535C9.51741 11.9324 9.43607 12.2113 9.2734 12.4785C9.12234 12.7458 8.90157 13.0246 8.62269 13.3035L7.73959 14.2215C7.61178 14.3493 7.55368 14.5003 7.55368 14.6863C7.55368 14.7792 7.5653 14.8606 7.58854 14.9535C7.6234 15.0465 7.65826 15.1162 7.6815 15.1859C7.89065 15.5694 8.25086 16.069 8.76213 16.6732C9.28502 17.2775 9.84276 17.8933 10.447 18.5091C11.0745 19.125 11.6787 19.6944 12.2945 20.2172C12.8987 20.7285 13.3984 21.0771 13.7935 21.2863C13.8516 21.3095 13.9213 21.3444 14.0026 21.3792C14.0956 21.4141 14.1885 21.4257 14.2931 21.4257C14.4906 21.4257 14.6417 21.356 14.7695 21.2282L15.6526 20.3567C15.9431 20.0662 16.222 19.8454 16.4892 19.706C16.7565 19.5433 17.0237 19.462 17.3142 19.462C17.535 19.462 17.7674 19.5084 18.023 19.613C18.2787 19.7176 18.5459 19.8687 18.8364 20.0662L22.6825 22.7968C22.9847 23.006 23.1938 23.25 23.3216 23.5405C23.4378 23.831 23.5075 24.1215 23.5075 24.4468Z" fill="#FFC96E"/>
<path d="M25.8315 22.1229C25.8315 22.5412 25.7385 22.9711 25.541 23.3894C25.3434 23.8077 25.0878 24.2028 24.7508 24.5746C24.1815 25.2021 23.554 25.6553 22.8452 25.9458C22.148 26.2363 21.3927 26.3873 20.5793 26.3873C19.3941 26.3873 18.1276 26.1084 16.7913 25.5391C15.4551 24.9697 14.1188 24.2028 12.7941 23.2384C11.4579 22.2623 10.1913 21.1817 8.98287 19.9849C7.78604 18.7764 6.70541 17.5099 5.74097 16.1852C4.78816 14.8606 4.02126 13.5359 3.46351 12.2229C2.90577 10.8982 2.62689 9.63169 2.62689 8.42324C2.62689 7.6331 2.76633 6.87782 3.0452 6.18063C3.32407 5.47183 3.76562 4.82113 4.38147 4.24014C5.12513 3.5081 5.93851 3.14789 6.79837 3.14789C7.12372 3.14789 7.44907 3.21761 7.73957 3.35704C8.04168 3.49648 8.30893 3.70563 8.51809 4.00775L11.2139 7.80739C11.423 8.09789 11.5741 8.36514 11.6786 8.62077C11.7832 8.86479 11.8413 9.1088 11.8413 9.32958C11.8413 9.60845 11.76 9.88732 11.5973 10.1546C11.4463 10.4218 11.2255 10.7007 10.9466 10.9796L10.0635 11.8975C9.93569 12.0253 9.87759 12.1764 9.87759 12.3623C9.87759 12.4553 9.88921 12.5366 9.91245 12.6296C9.94731 12.7225 9.98217 12.7922 10.0054 12.862C10.2146 13.2454 10.5748 13.7451 11.086 14.3493C11.6089 14.9535 12.1667 15.5694 12.7709 16.1852C13.3984 16.8011 14.0026 17.3704 14.6184 17.8933C15.2227 18.4046 15.7223 18.7532 16.1174 18.9623C16.1755 18.9856 16.2452 19.0204 16.3265 19.0553C16.4195 19.0901 16.5124 19.1018 16.617 19.1018C16.8146 19.1018 16.9656 19.032 17.0934 18.9042L17.9765 18.0327C18.267 17.7422 18.5459 17.5215 18.8132 17.382C19.0804 17.2194 19.3477 17.138 19.6381 17.138C19.8589 17.138 20.0913 17.1845 20.347 17.2891C20.6026 17.3937 20.8698 17.5447 21.1603 17.7422L25.0065 20.4729C25.3086 20.682 25.5177 20.926 25.6455 21.2165C25.7617 21.507 25.8315 21.7975 25.8315 22.1229Z" stroke="#133BB7" stroke-width="1.74296" stroke-miterlimit="10"/>
</svg>
