<svg width="14" height="14" viewBox="0 0 14 14" fill="none" xmlns="http://www.w3.org/2000/svg">
<g id="Capa_1" clip-path="url(#clip0_1572_2308)">
<g id="Group">
<g id="Group_2">
<path id="Vector" d="M8.06205 0H5.94379C2.66414 0.00336685 0.006268 2.66121 0.00292969 5.94086V8.05912C0.00960631 11.3374 2.66551 13.9933 5.94379 14H8.05597C11.3356 13.9966 13.9935 11.3388 13.9968 8.05914V5.94088C13.9901 2.66497 11.3379 0.0100435 8.06205 0ZM8.06205 13.3913H5.94379C3.00031 13.3879 0.614982 11.0026 0.611615 8.05912V5.94086C0.614982 2.99738 3.00031 0.612053 5.94379 0.608686H8.05597C10.9994 0.612053 13.3848 2.99738 13.3881 5.94086L13.3942 8.05912C13.3908 11.0026 11.0055 13.3879 8.06205 13.3913Z" fill="black"/>
</g>
</g>
<g id="Group_3">
<g id="Group_4">
<path id="Vector_2" d="M7.38324 6.70444C7.36084 6.67648 7.33542 6.65105 7.30745 6.62866V6.62258V3.70084C7.30745 3.53276 7.17118 3.39648 7.0031 3.39648C6.83501 3.39648 6.69874 3.53276 6.69874 3.70084V6.62866C6.4888 6.79674 6.45487 7.10318 6.62296 7.31312C6.79104 7.52307 7.09748 7.55699 7.30743 7.38891C7.5174 7.22082 7.55132 6.91438 7.38324 6.70444Z" fill="black"/>
</g>
</g>
<g id="Group_5">
<g id="Group_6">
<path id="Vector_3" d="M7.30742 2.09387H6.69873V2.93995H7.30742V2.09387Z" fill="black"/>
</g>
</g>
<g id="Group_7">
<g id="Group_8">
<path id="Vector_4" d="M7.30742 11.0601H6.69873V11.9061H7.30742V11.0601Z" fill="black"/>
</g>
</g>
<g id="Group_9">
<g id="Group_10">
<path id="Vector_5" d="M11.9091 6.69568H11.063V7.30436H11.9091V6.69568Z" fill="black"/>
</g>
</g>
<g id="Group_11">
<g id="Group_12">
<path id="Vector_6" d="M2.9369 6.69568H2.09082V7.30436H2.9369V6.69568Z" fill="black"/>
</g>
</g>
<g id="Group_13">
<g id="Group_14">
<path id="Vector_7" d="M4.81197 2.59494L4.28369 2.89734L4.70706 3.63695L5.23533 3.33455L4.81197 2.59494Z" fill="black"/>
</g>
</g>
<g id="Group_15">
<g id="Group_16">
<path id="Vector_8" d="M9.29842 10.3729L8.771 10.6768L9.19641 11.4152L9.72383 11.1113L9.29842 10.3729Z" fill="black"/>
</g>
</g>
<g id="Group_17">
<g id="Group_18">
<path id="Vector_9" d="M11.1062 4.28509L10.3672 4.70947L10.6703 5.23733L11.4093 4.81294L11.1062 4.28509Z" fill="black"/>
</g>
</g>
<g id="Group_19">
<g id="Group_20">
<path id="Vector_10" d="M3.3403 8.7666L2.60205 9.19226L2.90609 9.71957L3.64434 9.2939L3.3403 8.7666Z" fill="black"/>
</g>
</g>
<g id="Group_21">
<g id="Group_22">
<path id="Vector_11" d="M2.9152 4.26353L2.61084 4.79309L3.34691 5.21614L3.65127 4.68658L2.9152 4.26353Z" fill="black"/>
</g>
</g>
<g id="Group_23">
<g id="Group_24">
<path id="Vector_12" d="M10.6712 8.77036L10.3672 9.29773L11.1002 9.72026L11.4042 9.19289L10.6712 8.77036Z" fill="black"/>
</g>
</g>
<g id="Group_25">
<g id="Group_26">
<path id="Vector_13" d="M9.19038 2.60332L8.76709 3.33594L9.29415 3.64046L9.71744 2.90785L9.19038 2.60332Z" fill="black"/>
</g>
</g>
<g id="Group_27">
<g id="Group_28">
<path id="Vector_14" d="M4.70905 10.3696L4.28467 11.1086L4.81252 11.4118L5.23691 10.6728L4.70905 10.3696Z" fill="black"/>
</g>
</g>
<g id="Group_29">
<g id="Group_30">
<path id="Vector_15" d="M5.95594 6.69568H4.11768V7.30436H5.95594V6.69568Z" fill="black"/>
</g>
</g>
</g>
<defs>
<clipPath id="clip0_1572_2308">
<rect width="14" height="14" fill="white"/>
</clipPath>
</defs>
</svg>
