<svg width="18" height="18" viewBox="0 0 18 18" fill="none" xmlns="http://www.w3.org/2000/svg">
<g id="comment_qggvnsflgm1k 1">
<g id="Vector">
<mask id="path-1-inside-1_1911_7971" fill="white">
<path d="M9.00012 1.12501C7.60603 1.12327 6.23653 1.4921 5.03187 2.19372C3.82721 2.89534 2.83068 3.90455 2.14434 5.11798C1.458 6.33141 1.10651 7.70546 1.12587 9.09942C1.14523 10.4934 1.53474 11.8571 2.25451 13.051L1.14416 16.3814C1.12541 16.4377 1.12033 16.4978 1.12932 16.5565C1.13831 16.6153 1.16113 16.671 1.19588 16.7192C1.23064 16.7674 1.27634 16.8067 1.32923 16.8338C1.38213 16.8608 1.44069 16.875 1.50012 16.875C1.54046 16.8751 1.58054 16.8685 1.61877 16.8556L4.94909 15.7456C5.98924 16.3704 7.15974 16.7463 8.36919 16.844C9.57865 16.9417 10.7943 16.7585 11.9212 16.3086C13.0482 15.8588 14.0559 15.1546 14.8656 14.2509C15.6754 13.3473 16.2653 12.2686 16.5893 11.0993C16.9133 9.92998 16.9626 8.70158 16.7334 7.51004C16.5041 6.3185 16.0026 5.19608 15.2678 4.23043C14.5331 3.26478 13.5851 2.48205 12.4978 1.94335C11.4106 1.40466 10.2135 1.12458 9.00012 1.12501ZM9.00012 16.125C7.65315 16.124 6.33426 15.74 5.19738 15.0176C5.13735 14.9796 5.06776 14.9594 4.9967 14.9594C4.95635 14.9593 4.91627 14.9659 4.87805 14.9788L2.09262 15.9071L3.02133 13.1221C3.03877 13.0693 3.04434 13.0133 3.03763 12.9581C3.03092 12.9029 3.0121 12.8498 2.98251 12.8027C2.14004 11.4667 1.76573 9.88851 1.91848 8.31646C2.07122 6.7444 2.74236 5.26777 3.82626 4.11892C4.91016 2.97008 6.34529 2.21426 7.90581 1.9704C9.46633 1.72654 11.0636 2.00849 12.4464 2.77188C13.8291 3.53527 14.9187 4.73675 15.5438 6.18726C16.1689 7.63776 16.2939 9.25493 15.8992 10.7843C15.5045 12.3136 14.6125 13.6683 13.3635 14.6352C12.1146 15.602 10.5796 16.1261 9.00012 16.125ZM6.00012 9.00001C6.00012 9.14834 5.95613 9.29335 5.87372 9.41668C5.79131 9.54002 5.67417 9.63615 5.53713 9.69292C5.40008 9.74968 5.24928 9.76453 5.1038 9.7356C4.95831 9.70666 4.82467 9.63523 4.71979 9.53034C4.6149 9.42545 4.54347 9.29181 4.51453 9.14632C4.48559 9.00084 4.50044 8.85004 4.55721 8.71299C4.61397 8.57595 4.7101 8.45882 4.83344 8.3764C4.95677 8.29399 5.10178 8.25001 5.25012 8.25001C5.44903 8.25001 5.63979 8.32902 5.78045 8.46968C5.9211 8.61033 6.00012 8.80109 6.00012 9.00001ZM9.75012 9.00001C9.75012 9.14834 9.70613 9.29335 9.62372 9.41668C9.54131 9.54002 9.42417 9.63615 9.28713 9.69292C9.15008 9.74968 8.99928 9.76453 8.8538 9.7356C8.70831 9.70666 8.57467 9.63523 8.46979 9.53034C8.3649 9.42545 8.29347 9.29181 8.26453 9.14632C8.23559 9.00084 8.25044 8.85004 8.30721 8.71299C8.36397 8.57595 8.4601 8.45882 8.58344 8.3764C8.70677 8.29399 8.85178 8.25001 9.00012 8.25001C9.19903 8.25001 9.38979 8.32902 9.53045 8.46968C9.6711 8.61033 9.75012 8.80109 9.75012 9.00001ZM13.5001 9.00001C13.5001 9.14834 13.4561 9.29335 13.3737 9.41668C13.2913 9.54002 13.1742 9.63615 13.0371 9.69292C12.9001 9.74968 12.7493 9.76453 12.6038 9.7356C12.4583 9.70666 12.3247 9.63523 12.2198 9.53034C12.1149 9.42545 12.0435 9.29181 12.0145 9.14632C11.9856 9.00084 12.0004 8.85004 12.0572 8.71299C12.114 8.57595 12.2101 8.45882 12.3334 8.3764C12.4568 8.29399 12.6018 8.25001 12.7501 8.25001C12.949 8.25001 13.1398 8.32902 13.2804 8.46968C13.4211 8.61033 13.5001 8.80109 13.5001 9.00001Z"/>
</mask>
<path d="M9.00012 1.12501L8.99887 2.12501L9.00046 2.12501L9.00012 1.12501ZM2.25451 13.051L3.20317 13.3673L3.34906 12.9297L3.11092 12.5347L2.25451 13.051ZM1.14416 16.3814L0.195495 16.0651L0.195208 16.0659L1.14416 16.3814ZM1.50012 16.875L1.50143 15.875H1.50055L1.50012 16.875ZM1.61877 16.8556L1.30256 15.9069L1.29886 15.9081L1.61877 16.8556ZM4.94909 15.7456L5.46403 14.8884L5.06951 14.6514L4.63289 14.7969L4.94909 15.7456ZM9.00012 16.125L8.9994 17.125H8.99942L9.00012 16.125ZM5.19738 15.0176L5.73368 14.1736L5.7325 14.1728L5.19738 15.0176ZM4.9967 14.9594L4.99538 15.9594H4.99655L4.9967 14.9594ZM4.87805 14.9788L5.19424 15.9275L5.19795 15.9262L4.87805 14.9788ZM2.09262 15.9071L1.14397 15.5908L0.511231 17.4882L2.4088 16.8558L2.09262 15.9071ZM3.02133 13.1221L3.96997 13.4384L3.97083 13.4358L3.02133 13.1221ZM2.98251 12.8027L3.82919 12.2706L3.82838 12.2694L2.98251 12.8027ZM9.00136 0.125007C7.43003 0.123047 5.88641 0.538769 4.52858 1.3296L5.53515 3.05784C6.58665 2.44542 7.78203 2.12349 8.99887 2.12501L9.00136 0.125007ZM4.52858 1.3296C3.17076 2.12043 2.04753 3.25795 1.27393 4.62566L3.01475 5.6103C3.61383 4.55115 4.48366 3.67026 5.53515 3.05784L4.52858 1.3296ZM1.27393 4.62566C0.500322 5.99337 0.104143 7.54212 0.125963 9.1133L2.12577 9.08553C2.10887 7.86881 2.41567 6.66945 3.01475 5.6103L1.27393 4.62566ZM0.125963 9.1133C0.147783 10.6845 0.586818 12.2216 1.39811 13.5673L3.11092 12.5347C2.48266 11.4926 2.14267 10.3023 2.12577 9.08553L0.125963 9.1133ZM1.30585 12.7347L0.195496 16.0651L2.09282 16.6976L3.20317 13.3673L1.30585 12.7347ZM0.195208 16.0659C0.126519 16.2726 0.107884 16.4926 0.140838 16.7078L2.11781 16.4052C2.13278 16.503 2.12431 16.6029 2.09311 16.6968L0.195208 16.0659ZM0.140838 16.7078C0.173792 16.9231 0.257392 17.1275 0.38476 17.3041L2.007 16.1343C2.06486 16.2146 2.10284 16.3074 2.11781 16.4052L0.140838 16.7078ZM0.38476 17.3041C0.51213 17.4807 0.679623 17.6246 0.873452 17.7239L1.78501 15.9437C1.87306 15.9888 1.94914 16.0541 2.007 16.1343L0.38476 17.3041ZM0.873452 17.7239C1.06729 17.8231 1.28192 17.8749 1.49968 17.875L1.50055 15.875C1.59947 15.875 1.69696 15.8986 1.78501 15.9437L0.873452 17.7239ZM1.4988 17.875C1.64838 17.8752 1.79697 17.8509 1.93867 17.803L1.29886 15.9081C1.36411 15.8861 1.43254 15.8749 1.50143 15.875L1.4988 17.875ZM1.93497 17.8043L5.26529 16.6943L4.63289 14.7969L1.30257 15.9069L1.93497 17.8043ZM4.43415 16.6028C5.60642 17.307 6.92561 17.7307 8.2887 17.8408L8.44969 15.8473C7.39387 15.762 6.37205 15.4338 5.46403 14.8884L4.43415 16.6028ZM8.2887 17.8408C9.65179 17.9508 11.0219 17.7443 12.292 17.2374L11.5505 15.3799C10.5667 15.7726 9.5055 15.9325 8.44969 15.8473L8.2887 17.8408ZM12.292 17.2374C13.562 16.7304 14.6977 15.9367 15.6104 14.9183L14.1209 13.5836C13.414 14.3724 12.5343 14.9872 11.5505 15.3799L12.292 17.2374ZM15.6104 14.9183C16.523 13.8998 17.1878 12.6842 17.553 11.3663L15.6256 10.8323C15.3428 11.8531 14.8278 12.7947 14.1209 13.5836L15.6104 14.9183ZM17.553 11.3663C17.9181 10.0485 17.9737 8.66401 17.7154 7.32112L15.7514 7.69896C15.9515 8.73914 15.9085 9.8115 15.6256 10.8323L17.553 11.3663ZM17.7154 7.32112C17.457 5.97822 16.8917 4.71322 16.0637 3.62491L14.472 4.83595C15.1134 5.67894 15.5513 6.65878 15.7514 7.69896L17.7154 7.32112ZM16.0637 3.62491C15.2356 2.53659 14.1671 1.65443 12.9418 1.0473L12.0539 2.8394C13.003 3.30966 13.8306 3.99297 14.472 4.83595L16.0637 3.62491ZM12.9418 1.0473C11.7164 0.44018 10.3673 0.12453 8.99977 0.125006L9.00046 2.12501C10.0597 2.12464 11.1047 2.36913 12.0539 2.8394L12.9418 1.0473ZM9.00083 15.125C7.84358 15.1242 6.71043 14.7942 5.73368 14.1736L4.66108 15.8616C5.95808 16.6857 7.46273 17.1239 8.9994 17.125L9.00083 15.125ZM5.7325 14.1728C5.51244 14.0334 5.25733 13.9594 4.99685 13.9594L4.99655 15.9594C4.87819 15.9593 4.76226 15.9257 4.66226 15.8624L5.7325 14.1728ZM4.99801 13.9594C4.84846 13.9592 4.69987 13.9835 4.55815 14.0313L5.19795 15.9262C5.13268 15.9483 5.06425 15.9594 4.99538 15.9594L4.99801 13.9594ZM4.56186 14.0301L1.77643 14.9584L2.4088 16.8558L5.19423 15.9275L4.56186 14.0301ZM3.04126 16.2234L3.96997 13.4384L2.07268 12.8057L1.14397 15.5908L3.04126 16.2234ZM3.97083 13.4358C4.03449 13.2432 4.05481 13.0388 4.03032 12.8374L2.04494 13.0787C2.03387 12.9877 2.04305 12.8954 2.07182 12.8083L3.97083 13.4358ZM4.03032 12.8374C4.00583 12.636 3.93715 12.4424 3.82919 12.2706L2.13582 13.3348C2.08704 13.2572 2.056 13.1698 2.04494 13.0787L4.03032 12.8374ZM3.82838 12.2694C3.10424 11.121 2.7825 9.76442 2.91379 8.41316L0.923165 8.21975C0.748965 10.0126 1.17585 11.8125 2.13664 13.3361L3.82838 12.2694ZM2.91379 8.41316C3.04508 7.06191 3.62196 5.79266 4.55362 4.80517L3.09889 3.43267C1.86276 4.74287 1.09736 6.4269 0.923165 8.21975L2.91379 8.41316ZM4.55362 4.80517C5.48529 3.81769 6.71886 3.16802 8.0602 2.95841L7.75142 0.982392C5.97172 1.2605 4.33503 2.12248 3.09889 3.43267L4.55362 4.80517ZM8.0602 2.95841C9.40155 2.7488 10.7745 2.99115 11.963 3.64732L12.9297 1.89644C11.3528 1.02583 9.53111 0.704283 7.75142 0.982392L8.0602 2.95841ZM11.963 3.64732C13.1515 4.30349 14.0881 5.33623 14.6254 6.58301L16.4621 5.7915C15.7493 4.13728 14.5066 2.76704 12.9297 1.89644L11.963 3.64732ZM14.6254 6.58301C15.1627 7.82979 15.2702 9.21983 14.9309 10.5344L16.8675 11.0342C17.3176 9.29004 17.175 7.44573 16.4621 5.7915L14.6254 6.58301ZM14.9309 10.5344C14.5916 11.8489 13.8249 13.0134 12.7514 13.8444L13.9757 15.4259C15.4 14.3233 16.4173 12.7783 16.8675 11.0342L14.9309 10.5344ZM12.7514 13.8444C11.6778 14.6755 10.3584 15.126 9.00081 15.125L8.99942 17.125C10.8007 17.1263 12.5513 16.5285 13.9757 15.4259L12.7514 13.8444ZM5.00012 9.00001C5.00012 8.95056 5.01478 8.90223 5.04225 8.86111L6.70519 9.97225C6.89748 9.68447 7.00012 9.34612 7.00012 9.00001H5.00012ZM5.04225 8.86111C5.06972 8.82 5.10876 8.78796 5.15444 8.76904L5.91981 10.6168C6.23958 10.4843 6.51289 10.26 6.70519 9.97225L5.04225 8.86111ZM5.15444 8.76904C5.20013 8.75011 5.25039 8.74516 5.29889 8.75481L4.90871 10.7164C5.24817 10.7839 5.60004 10.7492 5.91981 10.6168L5.15444 8.76904ZM5.29889 8.75481C5.34738 8.76446 5.39193 8.78827 5.42689 8.82323L4.01268 10.2374C4.25742 10.4822 4.56924 10.6489 4.90871 10.7164L5.29889 8.75481ZM5.42689 8.82323C5.46185 8.85819 5.48567 8.90274 5.49531 8.95123L3.53374 9.34141C3.60127 9.68088 3.76794 9.9927 4.01268 10.2374L5.42689 8.82323ZM5.49531 8.95123C5.50496 8.99973 5.50001 9.05 5.48109 9.09568L3.63333 8.33031C3.50087 8.65008 3.46622 9.00195 3.53374 9.34141L5.49531 8.95123ZM5.48109 9.09568C5.46216 9.14136 5.43012 9.1804 5.38901 9.20787L4.27787 7.54493C3.99008 7.73723 3.76578 8.01054 3.63333 8.33031L5.48109 9.09568ZM5.38901 9.20787C5.3479 9.23534 5.29956 9.25001 5.25012 9.25001V7.25001C4.904 7.25001 4.56565 7.35264 4.27787 7.54493L5.38901 9.20787ZM5.25012 9.25001C5.18381 9.25001 5.12022 9.22367 5.07334 9.17678L6.48755 7.76257C6.15936 7.43438 5.71424 7.25001 5.25012 7.25001V9.25001ZM5.07334 9.17678C5.02646 9.1299 5.00012 9.06631 5.00012 9.00001H7.00012C7.00012 8.53588 6.81574 8.09076 6.48755 7.76257L5.07334 9.17678ZM8.75012 9.00001C8.75012 8.95056 8.76478 8.90223 8.79225 8.86111L10.4552 9.97225C10.6475 9.68447 10.7501 9.34612 10.7501 9.00001H8.75012ZM8.79225 8.86111C8.81972 8.82 8.85876 8.78796 8.90444 8.76904L9.66981 10.6168C9.98958 10.4843 10.2629 10.26 10.4552 9.97225L8.79225 8.86111ZM8.90444 8.76904C8.95013 8.75011 9.00039 8.74516 9.04889 8.75481L8.65871 10.7164C8.99817 10.7839 9.35004 10.7492 9.66981 10.6168L8.90444 8.76904ZM9.04889 8.75481C9.09738 8.76446 9.14193 8.78827 9.17689 8.82323L7.76268 10.2374C8.00742 10.4822 8.31924 10.6489 8.65871 10.7164L9.04889 8.75481ZM9.17689 8.82323C9.21185 8.85819 9.23567 8.90274 9.24531 8.95123L7.28374 9.34141C7.35127 9.68088 7.51794 9.9927 7.76268 10.2374L9.17689 8.82323ZM9.24531 8.95123C9.25496 8.99973 9.25001 9.05 9.23108 9.09568L7.38333 8.33031C7.25087 8.65008 7.21622 9.00195 7.28374 9.34141L9.24531 8.95123ZM9.23108 9.09568C9.21216 9.14136 9.18012 9.1804 9.13901 9.20787L8.02787 7.54493C7.74008 7.73723 7.51578 8.01054 7.38333 8.33031L9.23108 9.09568ZM9.13901 9.20787C9.0979 9.23534 9.04956 9.25001 9.00012 9.25001V7.25001C8.654 7.25001 8.31565 7.35264 8.02787 7.54493L9.13901 9.20787ZM9.00012 9.25001C8.93381 9.25001 8.87022 9.22367 8.82334 9.17678L10.2376 7.76257C9.90936 7.43438 9.46424 7.25001 9.00012 7.25001V9.25001ZM8.82334 9.17678C8.77645 9.1299 8.75012 9.06631 8.75012 9.00001H10.7501C10.7501 8.53588 10.5657 8.09076 10.2376 7.76257L8.82334 9.17678ZM12.5001 9.00001C12.5001 8.95056 12.5148 8.90223 12.5422 8.86111L14.2052 9.97225C14.3975 9.68447 14.5001 9.34612 14.5001 9.00001H12.5001ZM12.5422 8.86111C12.5697 8.82 12.6088 8.78796 12.6544 8.76904L13.4198 10.6168C13.7396 10.4843 14.0129 10.26 14.2052 9.97225L12.5422 8.86111ZM12.6544 8.76904C12.7001 8.75011 12.7504 8.74516 12.7989 8.75481L12.4087 10.7164C12.7482 10.7839 13.1 10.7492 13.4198 10.6168L12.6544 8.76904ZM12.7989 8.75481C12.8474 8.76446 12.8919 8.78827 12.9269 8.82323L11.5127 10.2374C11.7574 10.4822 12.0692 10.6489 12.4087 10.7164L12.7989 8.75481ZM12.9269 8.82323C12.9619 8.85819 12.9857 8.90274 12.9953 8.95123L11.0337 9.34141C11.1013 9.68088 11.2679 9.9927 11.5127 10.2374L12.9269 8.82323ZM12.9953 8.95123C13.005 8.99973 13 9.05 12.9811 9.09568L11.1333 8.33031C11.0009 8.65008 10.9662 9.00195 11.0337 9.34141L12.9953 8.95123ZM12.9811 9.09568C12.9622 9.14136 12.9301 9.1804 12.889 9.20787L11.7779 7.54493C11.4901 7.73723 11.2658 8.01054 11.1333 8.33031L12.9811 9.09568ZM12.889 9.20787C12.8479 9.23534 12.7996 9.25001 12.7501 9.25001V7.25001C12.404 7.25001 12.0657 7.35264 11.7779 7.54493L12.889 9.20787ZM12.7501 9.25001C12.6838 9.25001 12.6202 9.22367 12.5733 9.17678L13.9876 7.76257C13.6594 7.43438 13.2142 7.25001 12.7501 7.25001V9.25001ZM12.5733 9.17678C12.5265 9.1299 12.5001 9.06631 12.5001 9.00001H14.5001C14.5001 8.53588 14.3157 8.09076 13.9876 7.76257L12.5733 9.17678Z" fill="#A8AAB8" mask="url(#path-1-inside-1_1911_7971)"/>
</g>
</g>
</svg>
