<svg width="20" height="20" viewBox="0 0 20 20" fill="none" xmlns="http://www.w3.org/2000/svg">
<g id="dollar_0yymx0emw06g 1" clip-path="url(#clip0_1572_2285)">
<g id="Group">
<g id="Group_2">
<path id="Vector" d="M10.5859 10.6868V14.0008C11.2679 13.759 11.7578 13.1077 11.7578 12.3438C11.7578 11.5799 11.2679 10.9286 10.5859 10.6868Z" fill="#A8AAB8"/>
</g>
</g>
<g id="Group_3">
<g id="Group_4">
<path id="Vector_2" d="M8.24219 7.6563C8.24219 8.42017 8.73207 9.07146 9.41406 9.31333V5.99927C8.73207 6.24114 8.24219 6.89243 8.24219 7.6563Z" fill="#A8AAB8"/>
</g>
</g>
<g id="Group_5">
<g id="Group_6">
<path id="Vector_3" d="M17.0711 2.92891C15.1823 1.0402 12.6711 0 10 0C7.32891 0 4.8177 1.0402 2.92891 2.92891C1.0402 4.8177 0 7.32891 0 10C0 12.6711 1.0402 15.1823 2.92891 17.0711C4.8177 18.9598 7.32891 20 10 20C12.6711 20 15.1823 18.9598 17.0711 17.0711C18.9598 15.1823 20 12.6711 20 10C20 7.32891 18.9598 4.8177 17.0711 2.92891ZM12.9297 12.3438C12.9297 13.7586 11.9216 14.9423 10.5859 15.2145V16.25H9.41406V15.2145C8.07844 14.9423 7.07031 13.7586 7.07031 12.3438H8.24219C8.24219 13.1076 8.73207 13.7589 9.41406 14.0008V10.527C8.07844 10.2548 7.07031 9.07109 7.07031 7.65625C7.07031 6.24141 8.07844 5.05773 9.41406 4.78551V3.75H10.5859V4.78551C11.9216 5.0577 12.9297 6.24141 12.9297 7.65625H11.7578C11.7578 6.89238 11.2679 6.24109 10.5859 5.99922V9.47301C11.9216 9.74523 12.9297 10.9289 12.9297 12.3438Z" fill="#A8AAB8"/>
</g>
</g>
</g>
<defs>
<clipPath id="clip0_1572_2285">
<rect width="20" height="20" fill="white"/>
</clipPath>
</defs>
</svg>
