<svg width="29" height="28" viewBox="0 0 29 28" fill="none" xmlns="http://www.w3.org/2000/svg">
<path d="M12.2187 27.9082C18.5185 27.9082 23.6255 22.8012 23.6255 16.5015C23.6255 10.2017 18.5185 5.09473 12.2187 5.09473C5.91898 5.09473 0.812012 10.2017 0.812012 16.5015C0.812012 22.8012 5.91898 27.9082 12.2187 27.9082Z" fill="#FFC96E"/>
<path d="M10.7036 16.8777C10.7036 18.3492 11.8329 19.5355 13.2359 19.5355H16.099C17.3195 19.5355 18.3119 18.4975 18.3119 17.2199C18.3119 15.8283 17.7073 15.3378 16.8062 15.0184L12.2093 13.4215C11.3082 13.1021 10.7036 12.6116 10.7036 11.22C10.7036 9.94243 11.696 8.90442 12.9165 8.90442H15.7796C17.1826 8.90442 18.3119 10.0907 18.3119 11.5622" stroke="#133BB7" stroke-width="1.71101" stroke-linecap="round" stroke-linejoin="round"/>
<path d="M14.5 7.3761V21.0642" stroke="#133BB7" stroke-width="1.71101" stroke-linecap="round" stroke-linejoin="round"/>
<path d="M14.5 25.6269C20.7998 25.6269 25.9067 20.52 25.9067 14.2202C25.9067 7.92044 20.7998 2.81348 14.5 2.81348C8.20023 2.81348 3.09326 7.92044 3.09326 14.2202C3.09326 20.52 8.20023 25.6269 14.5 25.6269Z" stroke="#133BB7" stroke-width="1.71101" stroke-linecap="round" stroke-linejoin="round"/>
</svg>
