<svg width="24" height="24" viewBox="0 0 24 24" fill="none" xmlns="http://www.w3.org/2000/svg">
<g id="icon">
<g id="Group">
<path id="Vector" d="M19.875 11.6869V3C19.875 1.9662 19.0338 1.125 18 1.125C15.5718 1.13149 10.6605 1.12031 8.25 1.125H3C1.9662 1.125 1.125 1.9662 1.125 3V18C1.125 19.0338 1.9662 19.875 3 19.875H11.6869C12.7263 21.6653 14.6601 22.875 16.875 22.875C23.0307 22.8077 25.1162 14.7547 19.875 11.6869ZM12.375 1.875V6.69945L10.74 5.33677C10.6705 5.27891 10.5853 5.25 10.5 5.25C10.4147 5.25 10.3295 5.27891 10.26 5.33677L8.625 6.69945V1.875H12.375ZM3 19.125C2.37964 19.125 1.875 18.6204 1.875 18V3C1.875 2.37964 2.37964 1.875 3 1.875H7.875V7.5C7.875 7.64539 7.95923 7.77795 8.09089 7.83949C8.22274 7.90136 8.37836 7.88123 8.49008 7.78823L10.5 6.11317L12.51 7.78823C12.6221 7.88156 12.7783 7.9011 12.9092 7.83949C13.0408 7.77795 13.125 7.64539 13.125 7.5V1.875H18C18.6204 1.875 19.125 2.37964 19.125 3V11.3167C14.2865 9.30551 9.30585 14.2886 11.3167 19.125H3ZM16.875 22.125C13.9801 22.125 11.625 19.7699 11.625 16.875C11.9133 9.91016 21.8377 9.91219 22.125 16.875C22.125 19.7699 19.7699 22.125 16.875 22.125Z" fill="#231F20"/>
<path id="Vector_2" d="M6.375 13.5H4.5C3.87964 13.5 3.375 14.0046 3.375 14.625V16.5C3.375 17.1204 3.87964 17.625 4.5 17.625H6.375C6.99536 17.625 7.5 17.1204 7.5 16.5V14.625C7.5 14.0046 6.99536 13.5 6.375 13.5ZM6.75 16.5C6.75 16.7069 6.58174 16.875 6.375 16.875H4.5C4.29326 16.875 4.125 16.7069 4.125 16.5V14.625C4.125 14.4181 4.29326 14.25 4.5 14.25H6.375C6.58174 14.25 6.75 14.4181 6.75 14.625V16.5Z" fill="#231F20"/>
<path id="Vector_3" d="M20.0731 13.9318C19.8973 13.8223 19.6662 13.8758 19.5566 14.0515L16.5288 18.9089L14.1348 16.6047C13.7819 16.267 13.2617 16.803 13.6148 17.1453C13.6148 17.1453 16.3422 19.7703 16.3422 19.7703C16.5053 19.9348 16.8027 19.8975 16.9204 19.6985L20.1931 14.4485C20.3025 14.2727 20.2489 14.0413 20.0731 13.9318Z" fill="#231F20"/>
</g>
</g>
</svg>
