<svg width="34" height="34" viewBox="0 0 34 34" fill="none" xmlns="http://www.w3.org/2000/svg">
<g id="US" filter="url(#filter0_d_974_3352)">
<g clip-path="url(#clip0_974_3352)">
<path id="Vector" d="M0 0H34V34H0V0Z" fill="white"/>
<g id="Group">
<path id="Vector_2" d="M0 1.30731C0 0.585303 0.585302 0 1.30731 0H32.6927C33.4147 0 34 0.585303 34 1.30731C34 2.02932 33.4147 2.61462 32.6927 2.61462H1.30731C0.585301 2.61462 0 2.02932 0 1.30731ZM0 6.53655C0 5.81454 0.585302 5.22924 1.30731 5.22924H32.6927C33.4147 5.22924 34 5.81454 34 6.53655C34 7.25856 33.4147 7.84386 32.6927 7.84386H1.30731C0.585301 7.84386 0 7.25856 0 6.53655ZM0 11.7658C0 11.0438 0.585302 10.4585 1.30731 10.4585H32.6927C33.4147 10.4585 34 11.0438 34 11.7658C34 12.4878 33.4147 13.0731 32.6927 13.0731H1.30731C0.585301 13.0731 0 12.4878 0 11.7658ZM0 16.995C0 16.273 0.585302 15.6877 1.30731 15.6877H32.6927C33.4147 15.6877 34 16.273 34 16.995C34 17.717 33.4147 18.3023 32.6927 18.3023H1.30731C0.585301 18.3023 0 17.717 0 16.995ZM0 22.2342C0 21.5122 0.585302 20.9269 1.30731 20.9269H32.6927C33.4147 20.9269 34 21.5122 34 22.2342C34 22.9562 33.4147 23.5415 32.6927 23.5415H1.30731C0.585301 23.5415 0 22.9562 0 22.2342ZM0 27.4635C0 26.7414 0.585302 26.1561 1.30731 26.1561H32.6927C33.4147 26.1561 34 26.7414 34 27.4635C34 28.1855 33.4147 28.7708 32.6927 28.7708H1.30731C0.585301 28.7708 0 28.1855 0 27.4635ZM0 32.6927C0 31.9707 0.585302 31.3854 1.30731 31.3854H32.6927C33.4147 31.3854 34 31.9707 34 32.6927C34 33.4147 33.4147 34 32.6927 34H1.30731C0.585301 34 0 33.4147 0 32.6927Z" fill="#D80027"/>
</g>
<path id="Vector_3" d="M0 0H17V18.3023H0V0Z" fill="#2E52B2"/>
<g id="Group_2">
<path id="Vector_4" d="M3.16815 13.8088L2.90304 12.5363L2.61143 13.8088H1.73657L2.44573 14.5743L2.18063 15.8468L2.90304 15.0614L3.60558 15.8468L3.33384 14.5743L4.05626 13.8088H3.16815ZM6.89953 13.8088L6.6278 12.5363L6.34944 13.8088H5.47458L6.18375 14.5743L5.91864 15.8468L6.6278 15.0614L7.34359 15.8468L7.07848 14.5743L7.78764 13.8088H6.89953ZM10.6442 13.8088L10.3592 12.5363L10.0941 13.8088H9.19934L9.92839 14.5743L9.65002 15.8468L10.3592 15.0614L11.0882 15.8468L10.8099 14.5743L11.519 13.8088H10.6442ZM14.3689 13.8088L14.1038 12.5363L13.8255 13.8088H12.944L13.6598 14.5743L13.3947 15.8468L14.1038 15.0614L14.8196 15.8468L14.5346 14.5743L15.2637 13.8088H14.3689ZM6.6278 7.48596L6.34944 8.75848H5.47458L6.18375 9.54386L5.91864 10.7965L6.6278 10.0211L7.34359 10.7965L7.07848 9.54386L7.78764 8.75848H6.89953L6.6278 7.48596ZM2.90304 7.48596L2.61143 8.75848H1.73657L2.44573 9.54386L2.18063 10.7965L2.90304 10.0211L3.60558 10.7965L3.33384 9.54386L4.05626 8.75848H3.16815L2.90304 7.48596ZM10.3592 7.48596L10.0941 8.75848H9.19934L9.92839 9.54386L9.65002 10.7965L10.3592 10.0211L11.0882 10.7965L10.8099 9.54386L11.519 8.75848H10.6442L10.3592 7.48596ZM14.1038 7.48596L13.8255 8.75848H12.944L13.6598 9.54386L13.3947 10.7965L14.1038 10.0211L14.8196 10.7965L14.5346 9.54386L15.2637 8.75848H14.3689L14.1038 7.48596ZM2.90304 2.45555L2.61143 3.70819H1.73657L2.44573 4.49357L2.18063 5.75614L2.90304 4.97076L3.60558 5.75614L3.33384 4.49357L4.05626 3.70819H3.16815L2.90304 2.45555ZM6.6278 2.45555L6.34944 3.70819H5.47458L6.18375 4.49357L5.91864 5.75614L6.6278 4.97076L7.34359 5.75614L7.07848 4.49357L7.78764 3.70819H6.89953L6.6278 2.45555ZM10.3592 2.45555L10.0941 3.70819H9.19934L9.92839 4.49357L9.65002 5.75614L10.3592 4.97076L11.0882 5.75614L10.8099 4.49357L11.519 3.70819H10.6442L10.3592 2.45555ZM14.1038 2.45555L13.8255 3.70819H12.944L13.6598 4.49357L13.3947 5.75614L14.1038 4.97076L14.8196 5.75614L14.5346 4.49357L15.2637 3.70819H14.3689L14.1038 2.45555Z" fill="white"/>
</g>
</g>
</g>
<defs>
<filter id="filter0_d_974_3352" x="0" y="0" width="34" height="34" filterUnits="userSpaceOnUse" color-interpolation-filters="sRGB">
<feFlood flood-opacity="0" result="BackgroundImageFix"/>
<feColorMatrix in="SourceAlpha" type="matrix" values="0 0 0 0 0 0 0 0 0 0 0 0 0 0 0 0 0 0 127 0" result="hardAlpha"/>
<feOffset/>
<feComposite in2="hardAlpha" operator="out"/>
<feColorMatrix type="matrix" values="0 0 0 0 0 0 0 0 0 0 0 0 0 0 0 0 0 0 0.25 0"/>
<feBlend mode="normal" in2="BackgroundImageFix" result="effect1_dropShadow_974_3352"/>
<feBlend mode="normal" in="SourceGraphic" in2="effect1_dropShadow_974_3352" result="shape"/>
</filter>
<clipPath id="clip0_974_3352">
<rect width="34" height="34" rx="17" fill="white"/>
</clipPath>
</defs>
</svg>
