<svg width="34" height="34" viewBox="0 0 34 34" fill="none" xmlns="http://www.w3.org/2000/svg">
<g id="UZ">
<g clip-path="url(#clip0_974_3361)">
<path id="Vector" d="M0 0.000457764H34V33.9998H0V0.000457764Z" fill="#D80027"/>
<path id="Vector_2" d="M0 23.6522H34V33.9997H0V23.6522Z" fill="#6DA544"/>
<path id="Vector_3" d="M0 0.000457764H34V10.4111H0V0.000457764Z" fill="#338AF3"/>
<path id="Vector_4" d="M0 12.5053H34V21.4359H0V12.5053Z" fill="white"/>
<path id="Vector_5" d="M0 5.2058C0 2.33097 2.33051 0.000457764 5.20534 0.000457764H28.7947C31.6695 0.000457764 34 2.33097 34 5.2058C34 8.08063 31.6695 10.4111 28.7947 10.4111H5.20534C2.33051 10.4111 0 8.08063 0 5.2058Z" fill="#338AF3"/>
<g id="Group">
<path id="Vector_6" d="M12.5301 5.20515C12.5301 3.61299 13.2761 2.28271 14.2723 1.95649C14.1163 1.90519 13.957 1.87924 13.7972 1.87909C12.5725 1.87909 11.5798 3.36815 11.5798 5.20515C11.5798 7.04215 12.5725 8.53121 13.7972 8.53121C13.9604 8.53121 14.1193 8.50402 14.2723 8.45381C13.2761 8.12759 12.5301 6.79731 12.5301 5.20515ZM15.5828 6.71692L15.7329 7.40991H16.2187L15.8257 7.83833L15.9759 8.53121L15.5828 8.10289L15.1898 8.53121L15.34 7.83833L14.947 7.40991H15.4327L15.5828 6.71692ZM17.1333 6.71692L17.2833 7.40991H17.7691L17.3761 7.83833L17.5262 8.53121L17.1333 8.10289L16.7403 8.53121L16.8903 7.83833L16.4974 7.40991H16.9831L17.1333 6.71692ZM18.6836 6.71692L18.8337 7.40991H19.3195L18.9266 7.83833L19.0766 8.53121L18.6836 8.10289L18.2906 8.53121L18.4407 7.83833L18.0477 7.40991H18.5335L18.6836 6.71692ZM20.234 6.71692L20.3842 7.40991H20.87L20.4769 7.83833L20.6271 8.53121L20.234 8.10289L19.841 8.53121L19.9912 7.83833L19.5982 7.40991H20.0839L20.234 6.71692ZM21.7845 6.71692L21.9346 7.40991H22.4203L22.0273 7.83833L22.1775 8.53121L21.7845 8.10289L21.3915 8.53121L21.5416 7.83833L21.1486 7.40991H21.6343L21.7845 6.71692ZM17.1333 4.29801L17.2833 4.99089H17.7691L17.3761 5.41921L17.5262 6.11219L17.1333 5.68397L16.7403 6.11219L16.8903 5.41921L16.4974 4.99089H16.9831L17.1333 4.29801ZM18.6836 4.29801L18.8337 4.99089H19.3195L18.9266 5.41921L19.0766 6.11219L18.6836 5.68397L18.2906 6.11219L18.4407 5.41921L18.0477 4.99089H18.5335L18.6836 4.29801ZM20.234 4.29801L20.3842 4.99089H20.87L20.4769 5.41921L20.6271 6.11219L20.234 5.68397L19.841 6.11219L19.9912 5.41921L19.5982 4.99089H20.0839L20.234 4.29801ZM21.7845 4.29801L21.9346 4.99089H22.4203L22.0273 5.41921L22.1775 6.11219L21.7845 5.68397L21.3915 6.11219L21.5416 5.41921L21.1486 4.99089H21.6343L21.7845 4.29801ZM18.6836 1.87909L18.8337 2.57197H19.3195L18.9266 3.00029L19.0766 3.69328L18.6836 3.26496L18.2906 3.69328L18.4407 3.00029L18.0477 2.57197H18.5335L18.6836 1.87909ZM20.234 1.87909L20.3842 2.57197H20.87L20.4769 3.00029L20.6271 3.69328L20.234 3.26496L19.841 3.69328L19.9912 3.00029L19.5982 2.57197H20.0839L20.234 1.87909ZM21.7845 1.87909L21.9346 2.57197H22.4203L22.0273 3.00029L22.1775 3.69328L21.7845 3.26496L21.3915 3.69328L21.5416 3.00029L21.1486 2.57197H21.6343L21.7845 1.87909Z" fill="white"/>
</g>
</g>
</g>
<defs>
<clipPath id="clip0_974_3361">
<rect width="34" height="34" rx="17" fill="white"/>
</clipPath>
</defs>
</svg>
