<svg width="22" height="22" viewBox="0 0 22 22" fill="none" xmlns="http://www.w3.org/2000/svg">
<g id="id_as5pp08axo2t 1">
<path id="Vector" fill-rule="evenodd" clip-rule="evenodd" d="M5.5 1.375C3.22183 1.375 1.375 3.22183 1.375 5.5V16.5C1.375 18.7782 3.22183 20.625 5.5 20.625H16.5C18.7782 20.625 20.625 18.7782 20.625 16.5V5.5C20.625 3.22183 18.7782 1.375 16.5 1.375H5.5ZM7.5625 6.1875C7.5625 5.61795 7.1008 5.15625 6.53125 5.15625C5.9617 5.15625 5.5 5.61795 5.5 6.1875V15.8125C5.5 16.3821 5.9617 16.8438 6.53125 16.8438C7.1008 16.8438 7.5625 16.3821 7.5625 15.8125V6.1875ZM10.3125 5.15625C9.74295 5.15625 9.28125 5.61795 9.28125 6.1875V15.8125C9.28125 16.3821 9.74295 16.8438 10.3125 16.8438H11.6875C14.9149 16.8438 17.5312 14.2274 17.5312 11C17.5312 7.77257 14.9149 5.15625 11.6875 5.15625H10.3125ZM11.3438 14.7812V7.21875H11.6875C13.7758 7.21875 15.4688 8.91168 15.4688 11C15.4688 13.0883 13.7758 14.7812 11.6875 14.7812H11.3438Z" fill="#A8AAB8"/>
</g>
</svg>
