<svg width="24" height="24" viewBox="0 0 24 24" fill="none" xmlns="http://www.w3.org/2000/svg">
<g id="Solid">
<g id="31-Insurance-shield copy 3">
<path id="Vector" d="M6 6H6.75V6.75H6V6Z" fill="#133BB7"/>
<path id="Vector_2" d="M17.25 6H18V6.75H17.25V6Z" fill="#133BB7"/>
<path id="Vector_3" d="M12 6.75C13.0384 6.75 14.0534 7.05791 14.9167 7.63478C15.7801 8.21166 16.453 9.0316 16.8504 9.99091C17.2477 10.9502 17.3517 12.0058 17.1491 13.0242C16.9466 14.0426 16.4465 14.9781 15.7123 15.7123C14.9781 16.4465 14.0426 16.9466 13.0242 17.1491C12.0058 17.3517 10.9502 17.2477 9.99091 16.8504C9.0316 16.453 8.21166 15.7801 7.63478 14.9167C7.05791 14.0534 6.75 13.0384 6.75 12C6.75153 10.6081 7.30514 9.27361 8.28937 8.28937C9.27361 7.30514 10.6081 6.75153 12 6.75ZM16.5 12.375V11.625H15V12.375H16.5ZM14.25 13.875V12.75C14.2496 12.4518 14.1309 12.1658 13.9201 11.9549C13.7092 11.7441 13.4232 11.6254 13.125 11.625H10.875C10.7756 11.6249 10.6803 11.5853 10.61 11.515C10.5397 11.4447 10.5001 11.3494 10.5 11.25V10.125C10.5001 10.0256 10.5397 9.93028 10.61 9.85999C10.6803 9.78969 10.7756 9.75014 10.875 9.75H13.5V10.5H14.25V9.375C14.25 9.27554 14.2105 9.18016 14.1402 9.10983C14.0698 9.03951 13.9745 9 13.875 9H12.375V7.5H11.625V9H10.875C10.5768 9.0004 10.2908 9.11905 10.0799 9.32994C9.86905 9.54084 9.7504 9.82675 9.75 10.125V11.25C9.7504 11.5482 9.86905 11.8342 10.0799 12.0451C10.2908 12.2559 10.5768 12.3746 10.875 12.375H13.125C13.2244 12.3751 13.3197 12.4147 13.39 12.485C13.4603 12.5553 13.4999 12.6506 13.5 12.75V13.875C13.4999 13.9744 13.4603 14.0697 13.39 14.14C13.3197 14.2103 13.2244 14.2499 13.125 14.25H10.5V13.5H9.75V14.625C9.75 14.7245 9.78951 14.8198 9.85983 14.8902C9.93016 14.9605 10.0255 15 10.125 15H11.625V16.5H12.375V15H13.125C13.4232 14.9996 13.7092 14.8809 13.9201 14.6701C14.1309 14.4592 14.2496 14.1732 14.25 13.875ZM9 12.375V11.625H7.5V12.375H9Z" fill="#133BB7"/>
<path id="Vector_4" d="M21 4.125V13.5C21.0022 14.2833 20.849 15.0592 20.5493 15.7829C20.2496 16.5065 19.8093 17.1636 19.2539 17.7159L16.216 20.7539C15.0978 21.872 13.5813 22.5001 12 22.5001C10.4188 22.5001 8.90226 21.872 7.78409 20.7539L4.74612 17.7159C4.19076 17.1636 3.75049 16.5065 3.45077 15.7829C3.15105 15.0592 2.99785 14.2833 3.00002 13.5V4.125C3.00042 3.82675 3.11907 3.54084 3.32997 3.32994C3.54086 3.11905 3.82678 3.0004 4.12502 3H7.87502C7.9745 3.00004 8.06993 2.96059 8.14034 2.89031L9.53018 1.5H14.4699L15.8597 2.89031C15.9301 2.96059 16.0255 3.00004 16.125 3H19.875C20.1733 3.0004 20.4592 3.11905 20.6701 3.32994C20.881 3.54084 20.9996 3.82675 21 4.125ZM20.25 13.5V4.875C20.2496 4.57675 20.131 4.29084 19.9201 4.07994C19.7092 3.86905 19.4233 3.7504 19.125 3.75H15.5302L14.1403 2.35969C14.0699 2.28941 13.9745 2.24996 13.875 2.25H12C11.9006 2.25 11.8052 2.28951 11.7349 2.35984C11.6645 2.43016 11.625 2.52554 11.625 2.625V4.5H12.375V3H13.7199L15.1097 4.39031C15.1801 4.46059 15.2755 4.50004 15.375 4.5H19.125C19.2244 4.50014 19.3197 4.53969 19.39 4.60999C19.4603 4.68028 19.4999 4.77559 19.5 4.875V13.5C19.5015 14.0454 19.3949 14.5858 19.1861 15.0897C18.9774 15.5936 18.6708 16.0511 18.2841 16.4358L14.9358 19.7841C14.5512 20.1708 14.0936 20.4774 13.5897 20.6861C13.0858 20.8948 12.5455 21.0015 12 21V21.75C12.644 21.7517 13.2819 21.6257 13.8768 21.3793C14.4717 21.1328 15.0119 20.7708 15.466 20.3142L18.8142 16.9659C19.2708 16.5118 19.6328 15.9717 19.8793 15.3768C20.1257 14.7819 20.2518 14.144 20.25 13.5ZM18.75 6.75V6H18V5.25H17.25V6H16.5V6.75H17.25V7.5H18V6.75H18.75ZM18 12C18 10.8133 17.6481 9.65327 16.9888 8.66658C16.3296 7.67988 15.3925 6.91085 14.2961 6.45672C13.1998 6.0026 11.9934 5.88378 10.8295 6.11529C9.6656 6.3468 8.5965 6.91824 7.75738 7.75736C6.91827 8.59647 6.34682 9.66557 6.11531 10.8295C5.8838 11.9933 6.00262 13.1997 6.45675 14.2961C6.91087 15.3925 7.67991 16.3295 8.6666 16.9888C9.6533 17.6481 10.8133 18 12 18C13.5908 17.9982 15.1159 17.3655 16.2407 16.2407C17.3655 15.1158 17.9982 13.5908 18 12ZM7.50002 6.75V6H6.75002V5.25H6.00002V6H5.25002V6.75H6.00002V7.5H6.75002V6.75H7.50002Z" fill="#133BB7"/>
</g>
</g>
</svg>
