<svg width="33" height="33" viewBox="0 0 33 33" fill="none" xmlns="http://www.w3.org/2000/svg">
<rect width="33" height="33" rx="5" fill="#07966D"/>
<g clip-path="url(#clip0_1491_2070)">
<path d="M25.7039 22.346L19.0343 15.6765C19.3824 14.7366 19.4758 13.7251 19.3035 12.727C19.103 11.5659 18.5553 10.5104 17.7195 9.67456C15.4996 7.45466 11.8875 7.45466 9.6676 9.67456C8.59224 10.7499 8 12.1797 8 13.7005C8 15.2213 8.59224 16.6511 9.66763 17.7264C10.5506 18.6094 11.6695 19.167 12.9032 19.339C13.8879 19.4763 14.9036 19.3495 15.8219 18.9815L16.4671 20.4086L18.3383 21.2547L19.1844 23.1259L21.0558 23.9721L21.9685 25.9904L26 25.9511L25.7039 22.346ZM14.5304 14.5374C14.1231 14.9446 13.5882 15.1482 13.0532 15.1482C12.5183 15.1482 11.9833 14.9446 11.5761 14.5374C10.7616 13.7228 10.7616 12.3975 11.5761 11.583C12.3907 10.7685 13.7159 10.7685 14.5304 11.583C15.3449 12.3975 15.3449 13.7229 14.5304 14.5374Z" fill="white"/>
<path d="M13.7017 12.4122C13.5231 12.2335 13.2884 12.1442 13.0538 12.1442C12.8191 12.1442 12.5844 12.2335 12.4057 12.4122C12.0484 12.7695 12.0484 13.3509 12.4057 13.7082C12.763 14.0655 13.3444 14.0655 13.7017 13.7082C14.0591 13.3509 14.0591 12.7695 13.7017 12.4122Z" fill="white"/>
</g>
<defs>
<clipPath id="clip0_1491_2070">
<rect width="18" height="18" fill="white" transform="translate(8 8)"/>
</clipPath>
</defs>
</svg>
