<svg width="24" height="24" viewBox="0 0 24 24" fill="none" xmlns="http://www.w3.org/2000/svg">
<g id="Capa_1">
<g id="Group">
<path id="Vector" d="M6.89648 15.2293C7.27148 15.2293 7.57617 14.9255 7.57617 14.5522C7.57617 14.1794 7.27148 13.8756 6.89648 13.8756C6.52195 13.8756 6.2168 14.1794 6.2168 14.5522C6.2168 14.9255 6.52195 15.2293 6.89648 15.2293Z" fill="#133BB7"/>
<path id="Vector_2" d="M6.89666 16.6293C6.47244 16.6293 6.12744 16.9727 6.12744 17.3951C6.12744 17.4824 6.1415 17.5603 6.16307 17.6284H7.63072C7.65228 17.5603 7.66635 17.4824 7.66635 17.3951C7.66635 16.9727 7.32135 16.6293 6.89666 16.6293Z" fill="#133BB7"/>
<path id="Vector_3" d="M19.7812 10.6178H14.5542V11.6299H19.7812V10.6178Z" fill="#133BB7"/>
<path id="Vector_4" d="M14.3257 4.4723C14.3257 3.19505 13.2823 2.15625 11.9998 2.15625C10.7173 2.15625 9.67383 3.19505 9.67383 4.4723V5.04431H14.3257V4.4723Z" fill="#133BB7"/>
<path id="Vector_5" d="M20.0119 6.44395H3.98813C1.78922 6.44395 0 8.22469 0 10.4143V17.8734C0 20.0625 1.78922 21.8438 3.98813 21.8438H20.0119C22.2108 21.8438 24 20.0625 24 17.8734V10.4143C24 8.22469 22.2108 6.44395 20.0119 6.44395ZM10.9659 17.4123C10.9659 18.3037 10.238 19.0284 9.34266 19.0284H4.45125C3.55594 19.0284 2.82797 18.3037 2.82797 17.4123V10.8338C2.82797 9.94294 3.55594 9.21774 4.45125 9.21774H9.34266C10.238 9.21774 10.9659 9.94294 10.9659 10.8338V17.4123ZM17.4019 18.8678H13.8511C13.463 18.8678 13.148 18.5543 13.148 18.1679C13.148 17.781 13.463 17.4679 13.8511 17.4679H17.4019C17.7905 17.4679 18.105 17.781 18.105 18.1679C18.105 18.5543 17.7905 18.8678 17.4019 18.8678ZM20.4844 16.5546H13.8511C13.463 16.5546 13.148 16.241 13.148 15.8546C13.148 15.4678 13.463 15.1546 13.8511 15.1546H20.4844C20.8725 15.1546 21.1875 15.4678 21.1875 15.8546C21.1875 16.241 20.8725 16.5546 20.4844 16.5546ZM21.1875 11.7881C21.1875 12.4727 20.6278 13.0299 19.9397 13.0299H14.3958C13.7077 13.0299 13.148 12.4727 13.148 11.7881V10.46C13.148 9.77494 13.7077 9.21778 14.3958 9.21778H19.9397C20.6278 9.21778 21.1875 9.77499 21.1875 10.46V11.7881Z" fill="#133BB7"/>
<path id="Vector_6" d="M9.34281 10.6178H4.45141C4.33187 10.6178 4.23438 10.7148 4.23438 10.8338V17.4123C4.23438 17.5313 4.33187 17.6284 4.45141 17.6284H4.73406C4.72562 17.5514 4.72141 17.4735 4.72141 17.395C4.72141 16.8192 4.94828 16.2956 5.31719 15.9073C5.00219 15.5433 4.81094 15.0697 4.81094 14.5521C4.81094 13.4074 5.74703 12.4755 6.89688 12.4755C8.04719 12.4755 8.98281 13.4074 8.98281 14.5521C8.98281 15.0697 8.79203 15.5433 8.47656 15.9073C8.84594 16.2956 9.07281 16.8192 9.07281 17.395C9.07281 17.4734 9.06859 17.5514 9.06016 17.6284H9.34281C9.46234 17.6284 9.55984 17.5313 9.55984 17.4123V10.8338C9.55984 10.7148 9.46234 10.6178 9.34281 10.6178Z" fill="#133BB7"/>
</g>
</g>
</svg>
