<svg width="24" height="24" viewBox="0 0 24 24" fill="none" xmlns="http://www.w3.org/2000/svg">
<g id="Outline">
<path id="Vector" d="M7.97968 17.8042L10.7078 22.6748C10.8056 22.8492 10.9481 22.9944 11.1206 23.0955C11.2931 23.1966 11.4895 23.2499 11.6894 23.25H12.3103C12.5103 23.2499 12.7066 23.1966 12.8791 23.0955C13.0516 22.9944 13.194 22.8492 13.2918 22.6748L16.02 17.8042C17.5164 17.057 18.7751 15.9076 19.6547 14.4849C20.5344 13.0623 21.0002 11.4226 20.9999 9.75C20.9999 4.78739 16.9625 0.75 11.9999 0.75C9.97182 0.750176 8.00327 1.43522 6.41326 2.69411C4.82325 3.953 3.70496 5.71196 3.23965 7.68589C2.77433 9.65983 2.98926 11.7331 3.84959 13.5696C4.70992 15.4061 6.16524 16.8982 7.97968 17.8042ZM3.75029 9.66895C3.76675 7.49352 4.64374 5.41308 6.18958 3.88235C7.73542 2.35161 9.82438 1.49509 11.9999 1.5C16.5489 1.5 20.2499 5.20097 20.2499 9.75C20.2502 11.3019 19.8128 12.8225 18.988 14.137C18.1631 15.4516 16.9842 16.5068 15.5866 17.1816C15.5174 17.215 15.4601 17.2689 15.4226 17.3359L12.6374 22.3083C12.6048 22.3664 12.5573 22.4148 12.4998 22.4485C12.4423 22.4822 12.3768 22.5 12.3102 22.5H11.6894C11.6228 22.5 11.5573 22.4822 11.4998 22.4485C11.4423 22.4148 11.3948 22.3664 11.3622 22.3083L8.577 17.3359C8.53945 17.2689 8.48218 17.215 8.41294 17.1816C7.003 16.5008 5.81588 15.4329 4.99024 14.1026C4.1646 12.7723 3.73454 11.2346 3.75029 9.66895Z" fill="black"/>
<path id="Vector_2" d="M12 16.5C15.7219 16.5 18.75 13.4719 18.75 9.75C18.75 6.02812 15.7219 3 12 3C8.27812 3 5.25 6.02812 5.25 9.75C5.25 13.4719 8.27812 16.5 12 16.5ZM12 3.75C13.1867 3.75 14.3467 4.10189 15.3334 4.76118C16.3201 5.42047 17.0892 6.35754 17.5433 7.4539C17.9974 8.55026 18.1162 9.75666 17.8847 10.9205C17.6532 12.0844 17.0818 13.1535 16.2426 13.9926C15.4035 14.8318 14.3344 15.4032 13.1705 15.6347C12.0067 15.8662 10.8003 15.7474 9.7039 15.2933C8.60754 14.8392 7.67047 14.0701 7.01118 13.0834C6.35189 12.0967 6 10.9367 6 9.75C6.0018 8.15925 6.63452 6.63417 7.75935 5.50935C8.88417 4.38452 10.4093 3.7518 12 3.75Z" fill="black"/>
<path id="Vector_3" d="M12.0002 14.25C12.8301 14.252 13.6443 14.0236 14.3521 13.5903C15.0599 13.157 15.6335 12.5357 16.0092 11.7957C16.0362 11.7428 16.0502 11.6843 16.0502 11.625C16.0502 11.5657 16.0362 11.5072 16.0092 11.4543C15.4758 10.4043 14.5508 9.60617 13.4339 9.23245C13.7909 8.93734 14.048 8.53927 14.1704 8.09257C14.2927 7.64587 14.2741 7.17231 14.1173 6.73653C13.9605 6.30075 13.673 5.92398 13.2941 5.65765C12.9152 5.39132 12.4634 5.2484 12.0002 5.2484C11.5371 5.2484 11.0852 5.39132 10.7063 5.65765C10.3274 5.92398 10.04 6.30075 9.88313 6.73653C9.72631 7.17231 9.70779 7.64587 9.83009 8.09257C9.9524 8.53927 10.2096 8.93734 10.5665 9.23245C9.44963 9.60617 8.52461 10.4043 7.99128 11.4543C7.96428 11.5072 7.9502 11.5657 7.9502 11.625C7.9502 11.6843 7.96428 11.7428 7.99128 11.7957C8.3669 12.5357 8.94054 13.157 9.64834 13.5903C10.3561 14.0236 11.1703 14.252 12.0002 14.25ZM10.5002 7.5C10.5002 7.20333 10.5882 6.91332 10.753 6.66665C10.9178 6.41997 11.1521 6.22771 11.4262 6.11418C11.7003 6.00065 12.0019 5.97094 12.2929 6.02882C12.5838 6.0867 12.8511 6.22956 13.0609 6.43934C13.2707 6.64912 13.4135 6.91639 13.4714 7.20737C13.5293 7.49834 13.4996 7.79994 13.386 8.07403C13.2725 8.34811 13.0803 8.58238 12.8336 8.74721C12.5869 8.91203 12.2969 9 12.0002 9C11.6025 8.99955 11.2213 8.84138 10.9401 8.56017C10.6588 8.27896 10.5007 7.89769 10.5002 7.5ZM12.0002 9.75C12.6589 9.74835 13.3064 9.92092 13.8768 10.2502C14.4473 10.5795 14.9206 11.0538 15.2487 11.625C14.9194 12.1951 14.4458 12.6686 13.8756 12.9977C13.3054 13.3269 12.6586 13.5001 12.0002 13.5001C11.3418 13.5001 10.695 13.3269 10.1248 12.9977C9.55461 12.6686 9.08107 12.1951 8.75178 11.625C9.07983 11.0538 9.5531 10.5795 10.1236 10.2502C10.6941 9.92092 11.3415 9.74835 12.0002 9.75Z" fill="black"/>
</g>
</svg>
