<svg width="29" height="29" viewBox="0 0 29 29" fill="none" xmlns="http://www.w3.org/2000/svg">
<path fill-rule="evenodd" clip-rule="evenodd" d="M5.82234 11.8661C5.82234 9.99521 6.11319 8.50702 6.93676 7.48462C7.72753 6.50293 9.16692 5.76579 11.9227 5.76579C14.6785 5.76579 16.1178 6.50293 16.9086 7.48462C17.7322 8.50702 18.023 9.99521 18.023 11.8661V14.1901C18.023 14.1906 18.023 14.1911 18.023 14.1917C17.9278 14.1906 17.8309 14.1901 17.7325 14.1901H6.11283C6.01445 14.1901 5.91763 14.1906 5.82234 14.1917C5.82234 14.1911 5.82234 14.1906 5.82234 14.1901V11.8661ZM4.0857 14.2955C4.08153 14.261 4.07938 14.2258 4.07938 14.1901V11.8661C4.07938 9.89094 4.36952 7.89322 5.5794 6.39124C6.82208 4.84855 8.86861 4.02283 11.9227 4.02283C14.9768 4.02283 17.0233 4.84855 18.266 6.39124C19.4759 7.89322 19.766 9.89094 19.766 11.8661V14.1901C19.766 14.2258 19.7639 14.261 19.7597 14.2955C22.7324 14.6687 23.5424 16.1193 23.5424 19.9999V22.3239C23.5424 26.9718 22.3804 28.1337 17.7325 28.1337H6.11283C1.46495 28.1337 0.302979 26.9718 0.302979 22.3239V19.9999C0.302979 16.1193 1.11301 14.6687 4.0857 14.2955Z" fill="#FFC96E"/>
<path d="M7.27478 11.8661V9.5422C7.27478 5.69608 8.43675 2.57037 14.2466 2.57037C20.0565 2.57037 21.2184 5.69608 21.2184 9.5422V11.8661" stroke="#133BB7" stroke-width="1.74296" stroke-linecap="round" stroke-linejoin="round"/>
<path d="M20.0565 25.8098H8.43675C3.78886 25.8098 2.62689 24.6478 2.62689 19.9999V17.676C2.62689 13.0281 3.78886 11.8661 8.43675 11.8661H20.0565C24.7043 11.8661 25.8663 13.0281 25.8663 17.676V19.9999C25.8663 24.6478 24.7043 25.8098 20.0565 25.8098Z" stroke="#133BB7" stroke-width="1.74296" stroke-linecap="round" stroke-linejoin="round"/>
<path d="M18.8904 18.838H18.9008" stroke="#133BB7" stroke-width="2.32394" stroke-linecap="round" stroke-linejoin="round"/>
<path d="M14.2414 18.838H14.2518" stroke="#133BB7" stroke-width="2.32394" stroke-linecap="round" stroke-linejoin="round"/>
<path d="M9.59236 18.838H9.6028" stroke="#133BB7" stroke-width="2.32394" stroke-linecap="round" stroke-linejoin="round"/>
</svg>
