<svg width="25" height="24" viewBox="0 0 25 24" fill="none" xmlns="http://www.w3.org/2000/svg">
<g id="vuesax/linear/message">
<g id="message">
<path id="Vector" d="M9 18.5H8.5C4.5 18.5 2.5 17.5 2.5 12.5V7.5C2.5 3.5 4.5 1.5 8.5 1.5H16.5C20.5 1.5 22.5 3.5 22.5 7.5V12.5C22.5 16.5 20.5 18.5 16.5 18.5H16C15.69 18.5 15.39 18.65 15.2 18.9L13.7 20.9C13.04 21.78 11.96 21.78 11.3 20.9L9.8 18.9C9.64 18.68 9.27 18.5 9 18.5Z" stroke="#A7A9B7" stroke-width="1.5" stroke-miterlimit="10" stroke-linecap="round" stroke-linejoin="round"/>
<path id="Vector_2" d="M16.4965 10.5H16.5054" stroke="#A7A9B7" stroke-width="2" stroke-linecap="round" stroke-linejoin="round"/>
<path id="Vector_3" d="M12.4955 10.5H12.5045" stroke="#A7A9B7" stroke-width="2" stroke-linecap="round" stroke-linejoin="round"/>
<path id="Vector_4" d="M8.49451 10.5H8.50349" stroke="#A7A9B7" stroke-width="2" stroke-linecap="round" stroke-linejoin="round"/>
</g>
</g>
</svg>
