<svg width="25" height="24" viewBox="0 0 25 24" fill="none" xmlns="http://www.w3.org/2000/svg">
<g id="vuesax/bold/message">
<g id="message">
<path id="Vector" d="M17.5 1.5H7.5C4.74 1.5 2.5 3.73 2.5 6.48V12.46V13.46C2.5 16.21 4.74 18.44 7.5 18.44H9C9.27 18.44 9.63 18.62 9.8 18.84L11.3 20.83C11.96 21.71 13.04 21.71 13.7 20.83L15.2 18.84C15.39 18.59 15.69 18.44 16 18.44H17.5C20.26 18.44 22.5 16.21 22.5 13.46V6.48C22.5 3.73 20.26 1.5 17.5 1.5ZM8.5 11.5C7.94 11.5 7.5 11.05 7.5 10.5C7.5 9.95 7.95 9.5 8.5 9.5C9.05 9.5 9.5 9.95 9.5 10.5C9.5 11.05 9.06 11.5 8.5 11.5ZM12.5 11.5C11.94 11.5 11.5 11.05 11.5 10.5C11.5 9.95 11.95 9.5 12.5 9.5C13.05 9.5 13.5 9.95 13.5 10.5C13.5 11.05 13.06 11.5 12.5 11.5ZM16.5 11.5C15.94 11.5 15.5 11.05 15.5 10.5C15.5 9.95 15.95 9.5 16.5 9.5C17.05 9.5 17.5 9.95 17.5 10.5C17.5 11.05 17.06 11.5 16.5 11.5Z" fill="#009369"/>
</g>
</g>
</svg>
