<svg width="33" height="33" viewBox="0 0 33 33" fill="none" xmlns="http://www.w3.org/2000/svg">
<rect width="33" height="33" rx="5" fill="#07966D"/>
<path fill-rule="evenodd" clip-rule="evenodd" d="M14.7382 21.1428C13.7539 21.3113 12.7295 20.5724 12.7295 19.4375V18.931C10.4131 18.469 8.66699 16.4166 8.66699 13.9546V13.8475C8.66699 10.9862 10.9766 8.66669 13.8257 8.66669H17.6749C20.524 8.66669 22.8337 10.9862 22.8337 13.8475C22.8337 14.4439 22.7333 15.0168 22.5487 15.55C24.1683 16.0984 25.3337 17.6265 25.3337 19.4259C25.3337 21.4589 23.846 23.1457 21.8962 23.4643V24.1382C21.8962 25.1327 20.7467 25.6906 19.9609 25.0774L17.9532 23.5109C16.4785 23.4176 15.2391 22.461 14.7382 21.1428ZM21.733 17.0465C20.7919 18.2489 19.3322 19.0228 17.6925 19.0283L16.205 20.2321C16.3877 21.1587 17.2073 21.8577 18.1908 21.8577H18.2303C18.4296 21.8577 18.623 21.9242 18.7798 22.0465L20.2295 23.1777V22.7552C20.2295 22.2595 20.6327 21.8577 21.1302 21.8577H21.2265C22.5743 21.8577 23.667 20.7689 23.667 19.4259C23.667 18.2559 22.8377 17.2789 21.733 17.0465ZM17.3722 17.3545C17.199 17.3545 17.0309 17.414 16.896 17.5233L14.4806 19.4781C14.4466 19.5055 14.3962 19.4814 14.3962 19.4375V18.0345C14.3962 17.9576 14.3835 17.8838 14.36 17.8149C14.3266 17.7163 14.2712 17.6279 14.1998 17.5557C14.0771 17.4314 13.907 17.3545 13.7191 17.3545C11.8494 17.3545 10.3337 15.8324 10.3337 13.9546V13.8475C10.3337 11.9106 11.8971 10.3405 13.8257 10.3405H17.6749C19.6036 10.3405 21.167 11.9106 21.167 13.8475C21.167 15.7844 19.6036 17.3545 17.6749 17.3545H17.3722Z" fill="white"/>
</svg>
