<svg width="33" height="33" viewBox="0 0 33 33" fill="none" xmlns="http://www.w3.org/2000/svg">
<rect width="33" height="33" rx="5" fill="#07966D"/>
<path d="M23.5657 23.3241C24.8024 22.0874 25.6091 20.5838 25.9863 18.9987C26.0943 18.5447 25.5363 18.2381 25.2072 18.569C25.2031 18.573 25.1991 18.5771 25.195 18.5811C22.4436 21.3326 17.9495 21.2795 15.2652 18.422C12.7346 15.7279 12.7678 11.5454 15.3377 8.88873C15.3701 8.85524 15.4027 8.82214 15.4356 8.78943C15.7657 8.46149 15.4572 7.90603 15.0045 8.01361C13.4335 8.38695 11.9424 9.18217 10.7118 10.3997C7.11365 13.9596 7.09338 19.7312 10.6675 23.3151C14.2261 26.8834 20.0035 26.8863 23.5657 23.3241Z" fill="white"/>
</svg>
