<svg width="167" height="167" viewBox="0 0 167 167" fill="none" xmlns="http://www.w3.org/2000/svg">
<g id="no-results 1" clip-path="url(#clip0_76_56)">
<g id="Group">
<path id="Vector" d="M85.4613 68.4937C87.2627 68.4937 88.723 67.0334 88.723 65.2319C88.723 63.4305 87.2627 61.9702 85.4613 61.9702H85.459C83.6575 61.9702 82.1982 63.4305 82.1982 65.2319C82.1982 67.0334 83.6598 68.4937 85.4613 68.4937Z" fill="#878690"/>
<path id="Vector_2" d="M101.77 68.4937C103.571 68.4937 105.032 67.0334 105.032 65.2319C105.032 63.4305 103.571 61.9702 101.77 61.9702H101.768C99.9661 61.9702 98.5068 63.4305 98.5068 65.2319C98.5068 67.0334 99.9684 68.4937 101.77 68.4937Z" fill="#878690"/>
<path id="Vector_3" d="M118.077 68.4937C119.879 68.4937 121.339 67.0334 121.339 65.2319C121.339 63.4305 119.879 61.9702 118.077 61.9702H118.075C116.274 61.9702 114.814 63.4305 114.814 65.2319C114.814 67.0334 116.276 68.4937 118.077 68.4937Z" fill="#878690"/>
<path id="Vector_4" d="M159.18 102.797C158.805 101.486 158.233 100.258 157.5 99.1461C163.722 88.9436 167 77.2658 167 65.2322C167 29.2634 137.737 0.000488281 101.768 0.000488281C84.6181 0.000488281 68.9925 6.65314 57.3366 17.5136C54.8809 15.1659 51.5746 13.7954 48.1017 13.7954C47.7031 13.7954 47.3055 13.813 46.9102 13.8482C43.361 9.31297 37.8434 6.57324 32.024 6.57324C22.7031 6.57324 14.9389 13.3648 13.4213 22.2602C7.93364 22.9099 3.6639 27.5906 3.6639 33.2497C3.6639 39.3518 8.6052 44.3163 14.6793 44.3163H39.9751C37.7458 50.8848 36.5364 57.9197 36.5364 65.2322C36.5364 78.5545 40.5508 90.9566 47.4334 101.293L4.20076 142.724C4.18412 142.74 4.16749 142.756 4.15118 142.772C-1.38373 148.308 -1.38373 157.314 4.15118 162.849C6.91864 165.617 10.554 167.001 14.1894 167.001C17.8247 167.001 21.4601 165.617 24.2275 162.849C24.2439 162.833 24.2602 162.816 24.2761 162.8L65.7058 119.566C76.0427 126.449 88.4452 130.464 101.768 130.464C112.002 130.464 121.788 128.164 130.867 123.628H156.4C162.244 123.628 167 118.872 167 113.027C167 108.144 163.681 104.022 159.18 102.797ZM14.6796 37.7928C12.2445 37.7928 10.1874 35.7122 10.1874 33.2494C10.1874 30.7442 12.2256 28.706 14.7308 28.706H16.4141C18.2155 28.706 19.6757 27.2458 19.6757 25.4444C19.6757 18.6356 25.2152 13.0961 32.024 13.0961C36.4011 13.0961 40.362 15.3397 42.6193 19.0984C43.3734 20.3538 44.8714 20.9529 46.2827 20.5632C46.8721 20.4007 47.484 20.3182 48.1017 20.3182C49.862 20.3182 51.5388 21.0077 52.7912 22.1904C48.6901 26.8515 45.2423 32.1004 42.5919 37.7931H14.6796V37.7928ZM19.5928 158.259C16.5993 161.228 11.7481 161.221 8.76404 158.237C5.77969 155.253 5.77219 150.401 8.74154 147.408L38.2935 119.087L47.9125 128.706L19.5928 158.259ZM52.4262 123.995L43.0038 114.572L51.3483 106.576C54.0694 109.889 57.1102 112.929 60.4227 115.65L52.4262 123.995ZM43.0599 65.2319C43.0599 32.86 69.3966 6.52333 101.768 6.52333C134.14 6.52333 160.477 32.86 160.477 65.2319C160.477 75.638 157.755 85.7463 152.577 94.6641C150.709 93.6693 148.585 93.1064 146.347 93.1064C146.194 93.1064 146.041 93.109 145.889 93.1142C151.174 84.7769 153.954 75.1954 153.954 65.2322C153.954 36.4572 130.544 13.0468 101.768 13.0468C93.3118 13.0468 84.9084 15.1205 77.4664 19.0439C75.8731 19.8841 75.2622 21.8567 76.1021 23.4503C76.9419 25.0436 78.9149 25.6542 80.5085 24.8146C87.016 21.3831 94.3676 19.5697 101.768 19.5697C126.946 19.5697 147.43 40.0537 147.43 65.2319C147.43 73.7273 145.121 81.9044 140.727 89.0643C137.667 87.0294 134.031 85.8846 130.269 85.8846C120.948 85.8846 113.184 92.6765 111.666 101.571C106.728 102.156 102.776 106.005 102.035 110.894C101.95 110.894 101.861 110.894 101.768 110.894C76.5903 110.894 56.1063 90.41 56.1063 65.2319C56.1063 57.8303 57.9194 50.4794 61.3496 43.9735C62.1898 42.3799 61.5792 40.4073 59.9856 39.5671C58.3923 38.7269 56.4194 39.3378 55.5792 40.9311C51.6565 48.3714 49.5828 56.7746 49.5828 65.2319C49.5828 94.0069 72.9928 117.417 101.768 117.417C102.25 117.417 102.648 117.416 103.024 117.409C104.452 120.34 107.132 122.548 110.36 123.324C107.541 123.734 104.675 123.94 101.768 123.94C69.3963 123.94 43.0599 97.6038 43.0599 65.2319ZM156.4 117.104H112.924C110.489 117.104 108.432 115.024 108.432 112.561C108.432 110.056 110.47 108.018 112.976 108.018H114.659C116.46 108.018 117.921 106.557 117.921 104.756C117.921 97.9472 123.46 92.4077 130.269 92.4077C134.646 92.4077 138.607 94.6514 140.864 98.4097C141.618 99.6654 143.116 100.265 144.528 99.8745C145.117 99.7117 145.729 99.6295 146.347 99.6295C149.896 99.6295 152.883 102.398 153.147 105.932C153.274 107.634 154.693 108.95 156.4 108.95C158.648 108.95 160.477 110.779 160.477 113.027C160.477 115.276 158.648 117.104 156.4 117.104Z" fill="#878690"/>
<path id="Vector_5" d="M67.1738 33.8994C68.9753 33.8994 70.4356 32.4391 70.4356 30.6377C70.4356 28.8362 68.9753 27.376 67.1738 27.376H67.1715C65.3701 27.376 63.9111 28.8362 63.9111 30.6377C63.9111 32.4391 65.3724 33.8994 67.1738 33.8994Z" fill="#878690"/>
</g>
</g>
<defs>
<clipPath id="clip0_76_56">
<rect width="167" height="167" fill="white"/>
</clipPath>
</defs>
</svg>
