<svg width="33" height="33" viewBox="0 0 33 33" fill="none" xmlns="http://www.w3.org/2000/svg">
<rect width="33" height="33" rx="5" fill="#07966D"/>
<path d="M23.2273 20.8742C23.169 20.8039 23.1117 20.7336 23.0554 20.6657C22.282 19.7302 21.8141 19.1656 21.8141 16.5173C21.8141 15.1462 21.4861 14.0212 20.8395 13.1774C20.3628 12.5541 19.7184 12.0812 18.869 11.7318C18.8581 11.7257 18.8483 11.7177 18.8402 11.7082C18.5347 10.6852 17.6987 10 16.7558 10C15.8129 10 14.9772 10.6852 14.6717 11.7072C14.6636 11.7163 14.6539 11.7241 14.6432 11.73C12.6611 12.546 11.6979 14.1115 11.6979 16.5162C11.6979 19.1656 11.2306 19.7302 10.4565 20.6646C10.4002 20.7325 10.3429 20.8014 10.2846 20.8731C10.1338 21.0549 10.0383 21.2761 10.0093 21.5105C9.98037 21.7449 10.0191 21.9827 10.1211 22.1957C10.338 22.6527 10.8003 22.9364 11.328 22.9364H22.1874C22.7127 22.9364 23.1718 22.6531 23.3894 22.1982C23.4918 21.9851 23.5309 21.7471 23.5022 21.5124C23.4735 21.2778 23.3781 21.0563 23.2273 20.8742ZM16.7558 25.75C17.2638 25.7496 17.7622 25.6117 18.1982 25.3509C18.6342 25.0902 18.9915 24.7163 19.2322 24.2689C19.2435 24.2474 19.2491 24.2234 19.2484 24.1992C19.2478 24.1749 19.2408 24.1513 19.2283 24.1305C19.2158 24.1097 19.1981 24.0926 19.177 24.0806C19.1558 24.0687 19.132 24.0625 19.1077 24.0625H14.4045C14.3802 24.0624 14.3564 24.0686 14.3352 24.0805C14.314 24.0924 14.2963 24.1096 14.2837 24.1304C14.2711 24.1511 14.2642 24.1748 14.2635 24.1991C14.2628 24.2234 14.2684 24.2474 14.2797 24.2689C14.5204 24.7162 14.8776 25.0901 15.3135 25.3508C15.7495 25.6116 16.2478 25.7495 16.7558 25.75Z" fill="white"/>
</svg>
