<svg width="29" height="28" viewBox="0 0 29 28" fill="none" xmlns="http://www.w3.org/2000/svg">
<g id="vuesax/linear/notification">
<g id="notification">
<path id="Vector" d="M14.5218 3.73474C10.7439 3.73474 7.67375 6.80493 7.67375 10.5827V13.8812C7.67375 14.5774 7.37701 15.6388 7.02319 16.2323L5.71066 18.4123C4.90031 19.7591 5.45957 21.2542 6.9433 21.7564C11.8624 23.3999 17.1696 23.3999 22.0888 21.7564C23.4698 21.2999 24.0747 19.6678 23.3214 18.4123L22.0089 16.2323C21.6665 15.6388 21.3698 14.5774 21.3698 13.8812V10.5827C21.3698 6.81634 18.2882 3.73474 14.5218 3.73474Z" stroke="white" stroke-width="1.712" stroke-miterlimit="10" stroke-linecap="round"/>
<path id="Vector_2" d="M16.6328 4.06564C16.279 3.96292 15.9138 3.88303 15.5372 3.83738C14.4415 3.70042 13.3915 3.78031 12.4099 4.06564C12.7409 3.22106 13.5627 2.62756 14.5214 2.62756C15.4801 2.62756 16.3019 3.22106 16.6328 4.06564Z" stroke="white" stroke-width="1.712" stroke-miterlimit="10" stroke-linecap="round" stroke-linejoin="round"/>
<path id="Vector_3" d="M17.9457 22.1674C17.9457 24.0506 16.4049 25.5914 14.5217 25.5914C13.5858 25.5914 12.7183 25.2033 12.102 24.587C11.4857 23.9707 11.0977 23.1033 11.0977 22.1674" stroke="white" stroke-width="1.712" stroke-miterlimit="10"/>
</g>
</g>
</svg>
