<svg width="26" height="26" viewBox="0 0 26 26" fill="none" xmlns="http://www.w3.org/2000/svg">
<g id="Layer_1" clip-path="url(#clip0_1899_4772)">
<g id="Group">
<g id="Group_2">
<path id="Vector" d="M24.7121 21.58C22.1121 20.2115 20.124 19.4523 18.3582 19.1525L18.5501 18.8881C18.6255 18.7846 18.6515 18.6524 18.6199 18.528L18.2178 16.9195C18.3651 16.712 18.5038 16.4975 18.6342 16.2773C20.2536 15.7279 21.0743 14.7984 21.2096 13.4247C21.9462 13.38 22.5334 12.7725 22.5334 12.025V8.775C22.5334 8.03227 21.9535 7.42864 21.2243 7.37664C21.122 4.85941 20.0144 0 13 0C5.98518 0 4.87759 4.85941 4.77577 7.37664C4.04605 7.42864 3.46668 8.03227 3.46668 8.775V12.025C3.46668 12.8015 4.0985 13.4333 4.875 13.4333H5.525C5.77764 13.4333 6.01164 13.361 6.21659 13.244C6.46405 14.547 7.00959 15.8301 7.78177 16.9195L7.37963 18.528C7.34845 18.6524 7.374 18.7846 7.44941 18.8881L7.64182 19.1525C5.876 19.4523 3.88786 20.2115 1.28741 21.58C0.493137 21.9982 0 22.8159 0 23.7142V25.5667C0 25.8059 0.19368 26 0.433316 26H10.8333H10.8338H10.9958H10.9963L14.9847 25.9961C14.9916 25.9965 14.9977 26 15.0046 26H25.5667C25.8059 26 26 25.8059 26 25.5667V23.7142C26 22.8159 25.5065 21.9982 24.7121 21.58ZM19.2322 15.0783C19.4783 14.4837 19.6646 13.8662 19.783 13.244C19.9515 13.3401 20.14 13.4008 20.3428 13.4199C20.2679 14.04 19.9923 14.6215 19.2322 15.0783ZM6.16804 7.52959C6.00773 7.44641 5.83091 7.39441 5.64241 7.37836C5.74905 4.76623 6.92595 0.866684 13 0.866684C19.0736 0.866684 20.2505 4.76628 20.3571 7.37836C20.1686 7.39441 19.9918 7.44641 19.8315 7.52959C19.2864 4.24668 16.4346 1.73332 13 1.73332C9.56495 1.73332 6.71318 4.24668 6.16804 7.52959ZM8.26932 18.5419L8.46386 17.7645C8.46559 17.7667 8.46732 17.768 8.46904 17.7697C9.516 18.9076 10.8472 19.7093 12.3482 19.8917C12.3491 19.8917 12.3499 19.8922 12.3513 19.8922L12.1549 20.3333L11.1752 22.5377L8.26932 18.5419ZM13 20.5673L14.0665 22.9667H11.9336L13 20.5673ZM11.362 25.1329L11.6215 23.8334H14.378L14.638 25.1299L11.362 25.1329ZM14.8243 22.5377L13.8445 20.3333L13.6487 19.8922C13.6495 19.8922 13.6504 19.8917 13.6513 19.8917C15.1523 19.7093 16.4839 18.9076 17.5304 17.7697C17.5322 17.768 17.5344 17.7666 17.5356 17.7645L17.7306 18.5419L14.8243 22.5377ZM13.4333 16.0333C13.1937 16.0333 13 16.2275 13 16.4666C13 16.7058 13.1937 16.9 13.4333 16.9C15.0167 16.9 16.3293 16.7985 17.4061 16.5931C17.3897 16.6148 17.3719 16.6352 17.355 16.6568C17.3398 16.6711 17.3199 16.6806 17.3069 16.6975C17.1583 16.8878 17.004 17.0676 16.8454 17.2362C16.8441 17.2375 16.8428 17.2388 16.8415 17.2401C16.737 17.351 16.6275 17.4498 16.5191 17.5512C15.4596 18.5067 14.2012 19.0666 13 19.0666C11.7984 19.0666 10.54 18.5067 9.48091 17.5516C9.37214 17.4498 9.2625 17.351 9.15809 17.2396C9.15677 17.2388 9.15591 17.2374 9.15464 17.2366C8.99605 17.0676 8.84178 16.8878 8.69268 16.6975C8.67968 16.6806 8.66018 16.6711 8.64459 16.6568C7.62364 15.3685 6.93337 13.6512 6.93337 11.6999V8.7749V8.66658C6.93332 5.32132 9.65468 2.6 13 2.6C16.3449 2.6 19.0667 5.32132 19.0667 8.66668V8.775V11.7C19.0667 13.1391 18.6875 14.4486 18.0826 15.5562C17.0478 15.8548 15.5619 16.0333 13.4333 16.0333Z" fill="black"/>
</g>
</g>
</g>
<defs>
<clipPath id="clip0_1899_4772">
<rect width="26" height="26" fill="white"/>
</clipPath>
</defs>
</svg>
