<svg width="29" height="28" viewBox="0 0 29 28" fill="none" xmlns="http://www.w3.org/2000/svg">
<path d="M9.85748 5.64225L3.7663 9.03008C2.38608 9.79433 1.25684 11.7106 1.25684 13.2848V19.7296C1.25684 21.3037 2.38608 23.22 3.7663 23.9843L9.85748 27.3721C11.1579 28.0907 13.2909 28.0907 14.5913 27.3721L20.6825 23.9843C22.0627 23.22 23.192 21.3037 23.192 19.7296V13.2848C23.192 11.7106 22.0627 9.79433 20.6825 9.03008L14.5913 5.64225C13.2795 4.91222 11.1579 4.91222 9.85748 5.64225Z" fill="#FFC96E"/>
<path d="M4.42773 9.0188L14.4999 14.8476L24.5035 9.05298" stroke="#133BB7" stroke-width="1.71101" stroke-linecap="round" stroke-linejoin="round"/>
<path d="M14.5 25.1821V14.8362" stroke="#133BB7" stroke-width="1.71101" stroke-linecap="round" stroke-linejoin="round"/>
<path d="M12.1392 3.361L6.04803 6.74883C4.66782 7.51308 3.53857 9.42939 3.53857 11.0035V17.4483C3.53857 19.0225 4.66782 20.9388 6.04803 21.703L12.1392 25.0909C13.4396 25.8095 15.5726 25.8095 16.873 25.0909L22.9642 21.703C24.3444 20.9388 25.4737 19.0225 25.4737 17.4483V11.0035C25.4737 9.42939 24.3444 7.51308 22.9642 6.74883L16.873 3.361C15.5612 2.63097 13.4396 2.63097 12.1392 3.361Z" stroke="#133BB7" stroke-width="1.71101" stroke-linecap="round" stroke-linejoin="round"/>
<path d="M20.2039 15.6346V11.4598L9.37891 5.20886" stroke="#133BB7" stroke-width="1.71101" stroke-linecap="round" stroke-linejoin="round"/>
</svg>
