<svg width="24" height="24" viewBox="0 0 24 24" fill="none" xmlns="http://www.w3.org/2000/svg">
<g id="Capa_1">
<g id="Group">
<path id="Vector" d="M18.854 0H3.99412V1.60506H3.05225V24H17.4934C18.0856 24 18.6038 23.6909 18.9016 23.2266C20.0345 23.2021 20.9469 22.2774 20.9469 21.1386V2.09192C20.9479 0.938939 20.0095 0 18.854 0ZM8.75445 12.8728H10.865V15.8224C9.9618 15.6456 9.18988 14.5063 8.75445 12.8728ZM9.63216 15.6612C8.05453 15.2611 6.72816 14.2423 5.9249 12.8738H8.23625C8.54041 14.0895 9.02482 15.0607 9.63216 15.6612ZM8.63494 12.3806C8.48604 11.6782 8.39739 10.9029 8.38221 10.0849H10.8635V12.3806H8.63494ZM8.38416 9.59265C8.39935 8.77371 8.488 7.99935 8.6369 7.29649H10.866V9.59265H8.38416ZM8.75445 6.80473C9.18988 5.17127 9.96327 4.03004 10.865 3.85371V6.80473H8.75445ZM8.23527 6.80473H5.92392C6.72767 5.43624 8.05404 4.416 9.63118 4.01584C9.02482 4.61878 8.54041 5.58808 8.23527 6.80473ZM8.12457 7.296C7.98449 7.99935 7.90514 8.77273 7.89094 9.59167H5.11086C5.14319 8.77273 5.33861 7.99886 5.66776 7.296H8.12457ZM7.89045 10.0839C7.90465 10.9038 7.98351 11.6767 8.12359 12.3801H5.66629C5.33714 11.6777 5.14221 10.9019 5.10939 10.0839H7.89045ZM7.68816 20.4044C7.624 20.4823 7.51772 20.5425 7.37029 20.5856C7.2209 20.6282 7.06612 20.6493 6.90449 20.6493H5.99592V21.6534H5.39739V18.5407H6.76C7.00441 18.5407 7.21355 18.5628 7.38792 18.6098C7.5618 18.6558 7.69061 18.7572 7.7729 18.9149C7.84686 19.0883 7.88506 19.3156 7.88506 19.5958C7.88359 19.9773 7.81796 20.2472 7.68816 20.4044ZM10.3649 21.6534L10.167 21.0666H8.81714L8.61731 21.6534H7.99918L8.71282 19.4934L9.03706 18.5388H9.91282L10.9752 21.6534H10.3649ZM13.5486 21.2126C13.4991 21.3463 13.4271 21.4477 13.334 21.5167C13.1881 21.625 12.8913 21.6784 12.4416 21.6784H12.2168C12.0175 21.6784 11.8456 21.6661 11.7011 21.646C11.5571 21.625 11.4341 21.5696 11.3337 21.4844C11.2593 21.4183 11.2039 21.3473 11.1701 21.2635C11.1358 21.1812 11.1148 21.097 11.1074 21.0083C11.0996 20.9202 11.0957 20.8085 11.0957 20.666H11.6903C11.6903 20.7012 11.6878 20.7306 11.6824 20.7536C11.6869 20.8487 11.6952 20.9211 11.7069 20.9711C11.7187 21.022 11.7417 21.0627 11.7775 21.0926C11.8176 21.1298 11.8705 21.1548 11.9362 21.1665C12.0033 21.1793 12.0963 21.1871 12.2173 21.192C12.2756 21.192 12.3182 21.1959 12.3461 21.2018C12.4975 21.194 12.6116 21.1861 12.69 21.1768C12.7659 21.168 12.83 21.1469 12.8815 21.119C12.974 21.0637 13.0201 20.9319 13.0201 20.7291C13.0201 20.5847 12.9907 20.4823 12.9319 20.4201C12.9109 20.401 12.8844 20.3848 12.8501 20.3701C12.8183 20.3579 12.785 20.3496 12.7512 20.3437C12.7189 20.3402 12.6758 20.3353 12.6248 20.3324C12.5739 20.3295 12.5146 20.3251 12.4514 20.3221C12.3393 20.3172 12.2354 20.3133 12.137 20.3074C12.039 20.3045 11.945 20.2967 11.8573 20.2864C11.7691 20.2761 11.682 20.2555 11.5938 20.2286C11.5066 20.2007 11.4341 20.1644 11.3753 20.1203C11.2122 20.0003 11.1241 19.7736 11.1133 19.439C11.1133 19.0888 11.1922 18.8449 11.3494 18.7073C11.5135 18.577 11.823 18.5123 12.28 18.5123C12.5577 18.5123 12.7536 18.5202 12.8731 18.53C13.0647 18.5549 13.2101 18.6088 13.3096 18.6921C13.4149 18.7773 13.482 18.8787 13.5094 18.9997C13.5398 19.1207 13.5554 19.271 13.5554 19.4557H12.9535V19.3298C12.9535 19.2137 12.9339 19.1344 12.8913 19.0903C12.8418 19.034 12.7179 19.006 12.519 19.006H12.2736C12.0366 19.006 11.8833 19.033 11.8132 19.0903C11.7765 19.1182 11.75 19.1535 11.7329 19.2015C11.7172 19.2475 11.7084 19.3151 11.7084 19.4057C11.7138 19.5091 11.7226 19.584 11.7358 19.63C11.7481 19.6766 11.7789 19.7123 11.8289 19.7388C11.8696 19.7608 11.9195 19.778 11.9802 19.7897C12.04 19.8015 12.1105 19.8088 12.1918 19.8162C12.2736 19.8211 12.35 19.8264 12.4235 19.8309C12.6709 19.847 12.8746 19.8651 13.0338 19.8891C13.1925 19.9141 13.3169 19.9567 13.4002 20.0219C13.4521 20.063 13.4932 20.1135 13.5231 20.1718C13.553 20.23 13.5745 20.2913 13.5882 20.3554C13.6005 20.4186 13.6093 20.4744 13.6122 20.52C13.6152 20.566 13.6186 20.6434 13.6225 20.7541C13.622 20.9265 13.598 21.0779 13.5486 21.2126ZM12.5891 4.01584C14.1667 4.416 15.4926 5.43527 16.2949 6.80473H13.9845C13.6833 5.58808 13.1964 4.61878 12.5891 4.01584ZM16.2958 12.8728C15.4926 14.2413 14.1667 15.2616 12.5896 15.6598C13.1974 15.0578 13.6833 14.089 13.9864 12.8728H16.2958ZM13.4682 6.80473H11.3572V3.85371C12.2594 4.03053 13.0313 5.17127 13.4682 6.80473ZM13.5858 7.296C13.7362 7.99886 13.8243 8.77371 13.8395 9.59167H11.3582V7.296H13.5858ZM13.8376 10.0839C13.8229 10.9029 13.7332 11.6777 13.5838 12.3801H11.3558V10.0839H13.8376ZM13.4682 12.8728C13.0313 14.5063 12.2594 15.6456 11.3572 15.8224V12.8728H13.4682ZM16.3458 21.2126C16.2958 21.3463 16.2243 21.4477 16.1318 21.5167C15.9858 21.625 15.6885 21.6784 15.2389 21.6784H15.015C14.8162 21.6784 14.6438 21.6661 14.4978 21.646C14.3543 21.625 14.2313 21.5696 14.13 21.4844C14.0565 21.4183 14.0026 21.3473 13.9683 21.2635C13.934 21.1812 13.914 21.097 13.9042 21.0083C13.8973 20.9202 13.8939 20.8085 13.8939 20.666H14.489C14.489 20.7012 14.487 20.7306 14.4802 20.7536C14.4836 20.8487 14.4924 20.9211 14.5047 20.9711C14.5159 21.022 14.5389 21.0627 14.5752 21.0926C14.6144 21.1298 14.6673 21.1548 14.7339 21.1665C14.799 21.1793 14.8936 21.1871 15.0131 21.192C15.0713 21.192 15.1144 21.1959 15.1424 21.2018C15.2952 21.194 15.4073 21.1861 15.4847 21.1768C15.5602 21.168 15.6253 21.1469 15.6772 21.119C15.7688 21.0637 15.8149 20.9319 15.8149 20.7291C15.8149 20.5847 15.785 20.4823 15.7277 20.4201C15.7081 20.401 15.6787 20.3848 15.6459 20.3701C15.6121 20.3579 15.5788 20.3496 15.5469 20.3437C15.5136 20.3402 15.4696 20.3353 15.4186 20.3324C15.3677 20.3295 15.3104 20.3251 15.2452 20.3221C15.135 20.3172 15.0307 20.3133 14.9322 20.3074C14.8348 20.3045 14.7407 20.2967 14.6531 20.2864C14.5644 20.2756 14.4767 20.2555 14.39 20.2286C14.3019 20.2007 14.2304 20.1644 14.1726 20.1203C14.0075 20.0003 13.9203 19.7736 13.91 19.439C13.91 19.0888 13.9889 18.8449 14.1461 18.7073C14.3097 18.577 14.6207 18.5123 15.0767 18.5123C15.352 18.5123 15.5504 18.5202 15.6699 18.53C15.8614 18.5549 16.0069 18.6088 16.1063 18.6921C16.2101 18.7773 16.2772 18.8787 16.3061 18.9997C16.3365 19.1197 16.3522 19.271 16.3522 19.4557H15.7492V19.3298C15.7492 19.2137 15.7296 19.1344 15.6885 19.0903C15.6395 19.034 15.5151 19.006 15.3138 19.006H15.0684C14.8323 19.006 14.6771 19.033 14.6075 19.0903C14.5722 19.1182 14.5438 19.1535 14.5282 19.2015C14.511 19.2475 14.5047 19.3151 14.5047 19.4057C14.51 19.5091 14.5174 19.584 14.5311 19.63C14.5429 19.6766 14.5752 19.7123 14.6242 19.7388C14.6648 19.7608 14.7148 19.778 14.775 19.7897C14.8353 19.8015 14.9063 19.8088 14.9881 19.8162C15.0694 19.8211 15.1453 19.8264 15.2188 19.8309C15.4661 19.847 15.6689 19.8651 15.8291 19.8891C15.9887 19.9141 16.1122 19.9567 16.1964 20.0219C16.2493 20.063 16.2895 20.1135 16.3189 20.1718C16.3492 20.23 16.3708 20.2913 16.3835 20.3554C16.3958 20.4186 16.4031 20.4744 16.4075 20.52C16.4095 20.566 16.4124 20.6434 16.4178 20.7541C16.4193 20.9265 16.3958 21.0779 16.3458 21.2126ZM16.5544 12.3806H14.0952C14.2358 11.6782 14.3151 10.9043 14.3293 10.0849H17.1084C17.0766 10.9029 16.8831 11.6792 16.5544 12.3806ZM14.3303 9.59265C14.3161 8.77273 14.2372 8.00033 14.0976 7.29649H16.5554C16.8856 7.99935 17.0785 8.77469 17.1118 9.59265H14.3303ZM20.1109 21.1386C20.1109 21.7229 19.7097 22.2108 19.167 22.3518C19.167 22.342 19.169 22.3337 19.169 22.3254V3.27918C19.169 2.35494 18.4191 1.60506 17.4939 1.60506H4.83118V0.837061H18.854C19.5476 0.837061 20.1099 1.40033 20.1099 2.0929L20.1109 21.1386ZM9.48914 18.9928L10.0255 20.615H8.95037L9.48669 18.9928H9.48914ZM7.22727 19.2024C7.27135 19.2842 7.2929 19.4214 7.2929 19.6178C7.288 19.7569 7.27967 19.8524 7.2689 19.9058C7.25812 19.9592 7.22433 20.0091 7.16898 20.0552C7.11167 20.1105 6.97159 20.1404 6.75069 20.1404H5.99494V19.0506H6.76637C6.90057 19.0506 7.00245 19.0633 7.072 19.0849C7.14155 19.1079 7.19396 19.1486 7.22727 19.2024Z" fill="#133BB7"/>
</g>
</g>
</svg>
