<svg width="33" height="33" viewBox="0 0 33 33" fill="none" xmlns="http://www.w3.org/2000/svg">
<rect width="33" height="33" rx="5" fill="#07966D"/>
<path d="M17.7354 23.8488V23.0315C17.7354 22.6682 17.5537 22.3957 17.2813 22.2141C17.0088 22.0324 16.6455 22.1233 16.373 22.3049L14.0117 24.0305C13.7393 24.2121 13.6484 24.4846 13.6484 24.757C13.6484 25.0295 13.8301 25.302 14.0117 25.4836L16.373 27.2092C17.0088 27.6633 17.8262 27.2092 17.8262 26.4826V25.7561C22.3672 25.1203 26 21.2151 26 16.4924C26 13.8586 24.9102 11.3156 23.0029 9.59005C22.458 9.13595 21.9131 9.22677 21.5498 9.59005C21.1865 9.95333 21.2773 10.4983 21.6406 10.8615C23.1846 12.3147 24.0928 14.3127 24.0928 16.4016C24.0928 20.1252 21.3682 23.2131 17.7354 23.8488Z" fill="white"/>
<path d="M16.918 5.68478C16.6455 5.50314 16.2822 5.50314 15.9189 5.59396C15.6465 5.7756 15.4648 6.04806 15.4648 6.41134V7.1379C10.833 7.68282 7.2002 11.5881 7.2002 16.4016C7.2002 18.8537 8.19922 21.2151 9.9248 22.9406C10.2881 23.3039 10.833 23.3039 11.1963 22.9406C11.5596 22.5774 11.5596 22.0324 11.1963 21.6692C9.74316 20.216 9.0166 18.3996 9.0166 16.4016C9.0166 12.5871 11.832 9.49923 15.4648 8.95431V9.77169C15.4648 10.135 15.6465 10.4074 15.9189 10.5891C16.1006 10.6799 16.1914 10.6799 16.373 10.6799C16.5547 10.6799 16.7363 10.5891 16.918 10.4983L19.1885 8.77267C19.4609 8.59103 19.5518 8.31857 19.5518 8.04611C19.5518 7.77364 19.4609 7.50118 19.1885 7.31954L16.918 5.68478Z" fill="white"/>
<path d="M16.5547 20.3977C17.0996 20.3977 17.4629 20.0344 17.4629 19.4895V17.4006C18.4619 17.0373 19.1885 16.0383 19.1885 14.9485C19.1885 13.4953 18.0078 12.3147 16.5547 12.3147C15.1016 12.3147 13.9209 13.4953 13.9209 14.9485C13.9209 16.0383 14.6475 17.0373 15.6465 17.4006V19.4895C15.6465 20.0344 16.0098 20.3977 16.5547 20.3977Z" fill="white"/>
</svg>
