<svg width="20" height="20" viewBox="0 0 20 20" fill="none" xmlns="http://www.w3.org/2000/svg">
<g id="Capa_1" clip-path="url(#clip0_1540_3988)">
<g id="Group">
<path id="Vector" d="M19.4243 14.993L16.5336 12.1011C16.1454 11.7149 15.6256 11.5021 15.0701 11.5021C14.492 11.5021 13.9462 11.7297 13.5335 12.1426L12.4082 13.2676C11.5339 12.7816 10.3718 12.1132 9.16521 10.9066C7.96006 9.70107 7.29155 8.54234 6.80307 7.66326L7.92937 6.53779C8.76675 5.69867 8.78388 4.35246 7.96768 3.537L5.07759 0.646836C4.69046 0.258634 4.17063 0.0448418 3.61373 0.0448418C3.04855 0.0448418 2.5139 0.26244 2.10361 0.658502C1.8554 0.858394 0.609796 1.95797 0.145559 4.22562C-0.504422 7.39966 0.98898 10.4536 5.30024 14.7666C10.1163 19.5811 14.2277 19.9553 15.3731 19.9553C15.6116 19.9553 15.7555 19.9406 15.7938 19.9361C18.0399 19.6729 18.8441 18.6754 19.4313 17.947C20.1921 17.0031 20.1895 15.7611 19.4243 14.993ZM18.4651 17.1681C17.9132 17.8526 17.3919 18.4991 15.6495 18.7034C15.6486 18.7035 15.5532 18.7142 15.3731 18.7142C14.3483 18.7142 10.6565 18.3662 6.17783 13.889C2.20207 9.91155 0.806628 7.18396 1.36138 4.47449C1.76629 2.49659 2.84129 1.6559 2.88308 1.62396L2.92014 1.59657L2.95266 1.56397C3.13211 1.38468 3.36684 1.2859 3.61364 1.2859C3.83836 1.2859 4.04619 1.37012 4.19942 1.52385L7.09017 4.41468C7.42277 4.74695 7.40506 5.30608 7.0512 5.66069L5.77746 6.93335L5.75653 6.95528C5.42459 7.32089 5.46364 7.815 5.64649 8.13676C6.1741 9.0889 6.89681 10.3929 8.28745 11.784C9.67346 13.17 10.9756 13.8921 11.9251 14.4187C12.0201 14.4721 12.2164 14.5616 12.462 14.5616C12.7521 14.5616 13.0184 14.4388 13.2156 14.215L14.411 13.02C14.5894 12.8414 14.8234 12.7431 15.0699 12.7431C15.2951 12.7431 15.504 12.8275 15.6569 12.9796L18.5457 15.8696C18.9126 16.2379 18.7611 16.8009 18.4651 17.1681Z" fill="black"/>
<path id="Vector_2" d="M12.1165 3.08551C13.1827 3.2082 14.4382 3.85405 15.3149 4.73081C16.1997 5.61568 16.8472 6.88388 16.9641 7.96169C16.9986 8.27965 17.2675 8.51528 17.5802 8.51528C17.6026 8.51528 17.6252 8.51404 17.6479 8.51164C17.9886 8.47466 18.2348 8.16853 18.1978 7.82782C18.05 6.46539 17.2815 4.94245 16.1925 3.85331C15.1136 2.77433 13.6062 2.00777 12.2584 1.85264C11.9181 1.81318 11.6102 2.05775 11.571 2.39813C11.5318 2.73851 11.776 3.04629 12.1165 3.08551Z" fill="black"/>
<path id="Vector_3" d="M11.537 5.68494C12.1137 5.75137 12.9117 6.17912 13.4346 6.70194C13.9618 7.2293 14.3904 8.035 14.4535 8.61788C14.4881 8.93592 14.7569 9.17155 15.0697 9.17155C15.092 9.17155 15.1146 9.17031 15.1373 9.16791C15.478 9.13093 15.7243 8.8248 15.6873 8.48409C15.5794 7.48893 14.9188 6.43114 14.312 5.82435C13.7107 5.22293 12.6632 4.56542 11.6789 4.45199C11.3381 4.41236 11.0306 4.65701 10.9914 4.99739C10.9523 5.33785 11.1965 5.64572 11.537 5.68494Z" fill="black"/>
</g>
</g>
<defs>
<clipPath id="clip0_1540_3988">
<rect width="20" height="20" fill="white"/>
</clipPath>
</defs>
</svg>
