<svg width="25" height="25" viewBox="0 0 25 25" fill="none" xmlns="http://www.w3.org/2000/svg">
<path d="M3.43774 8.20761L12.2677 13.3176L21.0377 8.23758" stroke="#A8AAB8" stroke-width="1.5" stroke-linecap="round" stroke-linejoin="round"/>
<path d="M12.2678 22.3776V13.3076" stroke="#A8AAB8" stroke-width="1.5" stroke-linecap="round" stroke-linejoin="round"/>
<path d="M10.1977 3.24761L4.8577 6.21764C3.6477 6.88764 2.65771 8.56762 2.65771 9.94762V15.5976C2.65771 16.9776 3.6477 18.6576 4.8577 19.3276L10.1977 22.2977C11.3377 22.9277 13.2077 22.9277 14.3477 22.2977L19.6877 19.3276C20.8977 18.6576 21.8877 16.9776 21.8877 15.5976V9.94762C21.8877 8.56762 20.8977 6.88764 19.6877 6.21764L14.3477 3.24761C13.1977 2.60761 11.3377 2.60761 10.1977 3.24761Z" stroke="#A8AAB8" stroke-width="1.5" stroke-linecap="round" stroke-linejoin="round"/>
<path d="M17.2676 14.0076V10.3476L7.77759 4.86758" stroke="#A8AAB8" stroke-width="1.5" stroke-linecap="round" stroke-linejoin="round"/>
</svg>
