<svg width="25" height="25" viewBox="0 0 25 25" fill="none" xmlns="http://www.w3.org/2000/svg">
<path d="M12.2676 23.5176C11.5676 23.5176 10.8576 23.2476 10.3276 22.7176L8.61758 21.0276C8.18758 20.6076 7.62757 20.3776 7.02757 20.3776H6.26758C4.19758 20.3776 2.51758 18.7076 2.51758 16.6576V5.74758C2.51758 3.69758 4.19758 2.02761 6.26758 2.02761H18.2676C20.3376 2.02761 22.0176 3.69758 22.0176 5.74758V16.6576C22.0176 18.7076 20.3376 20.3776 18.2676 20.3776H17.5076C16.9076 20.3776 16.3376 20.6076 15.9176 21.0276L14.2076 22.7176C13.6776 23.2476 12.9676 23.5176 12.2676 23.5176ZM6.26758 3.5176C5.02758 3.5176 4.01758 4.51757 4.01758 5.73757V16.6476C4.01758 17.8776 5.02758 18.8676 6.26758 18.8676H7.02757C8.02757 18.8676 8.96758 19.2575 9.67758 19.9575L11.3876 21.6476C11.8776 22.1276 12.6676 22.1276 13.1576 21.6476L14.8676 19.9575C15.5776 19.2575 16.5176 18.8676 17.5176 18.8676H18.2676C19.5076 18.8676 20.5176 17.8676 20.5176 16.6476V5.73757C20.5176 4.50757 19.5076 3.5176 18.2676 3.5176H6.26758Z" fill="#A8AAB8"/>
<path d="M10.6478 15.2776H7.9678C7.5278 15.2776 7.1178 15.0675 6.8578 14.7075C6.6078 14.3675 6.5478 13.9476 6.6678 13.5476C7.0178 12.4776 7.8778 11.8976 8.6378 11.3776C9.4378 10.8376 9.8878 10.4976 9.8878 9.91763C9.8878 9.39763 9.4678 8.97756 8.9478 8.97756C8.4278 8.97756 8.00781 9.39763 8.00781 9.91763C8.00781 10.3276 7.66781 10.6676 7.25781 10.6676C6.84781 10.6676 6.50781 10.3276 6.50781 9.91763C6.50781 8.57763 7.5978 7.47756 8.9478 7.47756C10.2978 7.47756 11.3878 8.56763 11.3878 9.91763C11.3878 11.3276 10.3278 12.0476 9.47781 12.6276C8.94781 12.9876 8.4478 13.3276 8.1978 13.7776H10.6378C11.0478 13.7776 11.3878 14.1176 11.3878 14.5276C11.3878 14.9376 11.0578 15.2776 10.6478 15.2776Z" fill="#A8AAB8"/>
<path d="M16.3074 15.2777C15.8974 15.2777 15.5574 14.9377 15.5574 14.5277V13.8376H13.5975C13.5975 13.8376 13.5975 13.8376 13.5875 13.8376C13.0975 13.8376 12.6475 13.5777 12.3975 13.1577C12.1475 12.7277 12.1475 12.1977 12.3975 11.7777C13.0775 10.6077 13.8675 9.27763 14.5875 8.11763C14.9075 7.60763 15.5175 7.37768 16.0875 7.53768C16.6575 7.70768 17.0575 8.22772 17.0475 8.82772V12.3476H17.2675C17.6775 12.3476 18.0175 12.6876 18.0175 13.0976C18.0175 13.5076 17.6775 13.8476 17.2675 13.8476H17.0574V14.5377C17.0574 14.9477 16.7274 15.2777 16.3074 15.2777ZM15.5574 9.40767C14.9674 10.3677 14.3574 11.3976 13.8074 12.3376H15.5574V9.40767Z" fill="#A8AAB8"/>
</svg>
