<svg width="29" height="27" viewBox="0 0 29 27" fill="none" xmlns="http://www.w3.org/2000/svg">
<g id="Layer_1">
<path id="Vector" d="M12.0809 16.1825H6.37463C5.84513 16.1818 5.33749 15.9712 4.96307 15.5968C4.58866 15.2224 4.37805 14.7148 4.37744 14.1853V7.33776C4.37805 6.80826 4.58866 6.30062 4.96307 5.92621C5.33749 5.55179 5.84513 5.34118 6.37463 5.34058H12.0809C12.3079 5.34058 12.5256 5.43075 12.6861 5.59127C12.8466 5.75179 12.9368 5.9695 12.9368 6.19651V15.3265C12.9368 15.5535 12.8466 15.7712 12.6861 15.9318C12.5256 16.0923 12.3079 16.1825 12.0809 16.1825ZM6.37463 7.05245C6.29896 7.05245 6.22639 7.08251 6.17288 7.13602C6.11938 7.18952 6.08932 7.26209 6.08932 7.33776V14.1853C6.08932 14.2609 6.11938 14.3335 6.17288 14.387C6.22639 14.4405 6.29896 14.4706 6.37463 14.4706H11.2249V7.05245H6.37463Z" fill="#A8AAB8"/>
<path id="Vector_2" d="M22.3523 20.6288C21.9033 20.628 21.4597 20.5312 21.0513 20.3446L11.7261 16.106C11.5767 16.0377 11.45 15.928 11.3612 15.7898C11.2724 15.6516 11.2251 15.4908 11.2251 15.3265V6.19651C11.2251 6.03223 11.2724 5.87142 11.3612 5.73323C11.45 5.59504 11.5767 5.48528 11.7261 5.41704L21.0535 1.17501C21.5313 0.957838 22.0559 0.863938 22.5793 0.901899C23.1027 0.93986 23.6083 1.10847 24.0497 1.39231C24.4911 1.67614 24.8543 2.06613 25.1061 2.52661C25.3578 2.98708 25.4901 3.50334 25.4907 4.02813V17.488C25.4901 18.3204 25.1593 19.1186 24.571 19.7074C23.9826 20.2962 23.1847 20.6275 22.3523 20.6288ZM21.76 18.7868C21.9773 18.8855 22.2159 18.9281 22.4539 18.9107C22.6919 18.8934 22.9218 18.8165 23.1224 18.6873C23.3231 18.5581 23.4881 18.3806 23.6024 18.1711C23.7167 17.9615 23.7766 17.7267 23.7766 17.488V4.03498C23.7766 3.79632 23.7167 3.56148 23.6024 3.35196C23.4881 3.14244 23.3231 2.96494 23.1224 2.83571C22.9218 2.70649 22.6919 2.62967 22.4539 2.61229C22.2159 2.59491 21.9773 2.63753 21.76 2.73624L12.937 6.74773V14.7753L21.76 18.7868Z" fill="#A8AAB8"/>
<path id="Vector_3" d="M9.22797 25.3125C8.54722 25.3116 7.89461 25.0407 7.41325 24.5594C6.93189 24.078 6.66106 23.4254 6.66016 22.7446V18.7503C6.66016 18.5233 6.75034 18.3055 6.91085 18.145C7.07137 17.9845 7.28909 17.8943 7.51609 17.8943C7.7431 17.8943 7.96081 17.9845 8.12133 18.145C8.28185 18.3055 8.37203 18.5233 8.37203 18.7503V22.7446C8.37203 22.9717 8.46221 23.1894 8.62273 23.3499C8.78325 23.5104 9.00096 23.6006 9.22797 23.6006C9.45498 23.6006 9.67269 23.5104 9.83321 23.3499C9.99373 23.1894 10.0839 22.9717 10.0839 22.7446V15.3265C10.0839 15.0995 10.1741 14.8818 10.3346 14.7213C10.4951 14.5608 10.7128 14.4706 10.9398 14.4706C11.1669 14.4706 11.3846 14.5608 11.5451 14.7213C11.7056 14.8818 11.7958 15.0995 11.7958 15.3265V22.7446C11.7949 23.4254 11.524 24.078 11.0427 24.5594C10.5613 25.0407 9.90872 25.3116 9.22797 25.3125Z" fill="#A8AAB8"/>
<path id="Vector_4" d="M13.2224 20.7475H10.9399C10.7129 20.7475 10.4952 20.6573 10.3347 20.4968C10.1742 20.3362 10.084 20.1185 10.084 19.8915V15.3265C10.084 15.0995 10.1742 14.8818 10.3347 14.7213C10.4952 14.5608 10.7129 14.4706 10.9399 14.4706H12.0812C12.3082 14.4706 12.5259 14.5608 12.6864 14.7213C12.8469 14.8818 12.9371 15.0995 12.9371 15.3265C12.9371 15.5535 12.8469 15.7712 12.6864 15.9318C12.5259 16.0923 12.3082 16.1825 12.0812 16.1825H11.7959V19.0356H13.2224C13.6006 19.035 13.9631 18.8845 14.2305 18.6171C14.4979 18.3497 14.6484 17.9872 14.649 17.609V16.8786C14.649 16.6516 14.7392 16.4339 14.8997 16.2734C15.0602 16.1129 15.2779 16.0227 15.5049 16.0227C15.7319 16.0227 15.9496 16.1129 16.1102 16.2734C16.2707 16.4339 16.3609 16.6516 16.3609 16.8786V17.609C16.3603 18.4412 16.0294 19.2391 15.441 19.8276C14.8525 20.416 14.0546 20.7469 13.2224 20.7475Z" fill="#A8AAB8"/>
</g>
</svg>
