<svg width="25" height="24" viewBox="0 0 25 24" fill="none" xmlns="http://www.w3.org/2000/svg">
<g id="vuesax/bold/frame">
<g id="frame">
<path id="Vector" d="M12.5 1.5C9.88 1.5 7.75 3.63 7.75 6.25C7.75 8.82 9.76 10.9 12.38 10.99C12.46 10.98 12.54 10.98 12.6 10.99C12.62 10.99 12.63 10.99 12.65 10.99C12.66 10.99 12.66 10.99 12.67 10.99C15.23 10.9 17.24 8.82 17.25 6.25C17.25 3.63 15.12 1.5 12.5 1.5Z" fill="#009369"/>
<path id="Vector_2" d="M17.58 13.6499C14.79 11.7899 10.24 11.7899 7.42996 13.6499C6.15996 14.4999 5.45996 15.6499 5.45996 16.8799C5.45996 18.1099 6.15996 19.2499 7.41996 20.0899C8.81996 21.0299 10.66 21.4999 12.5 21.4999C14.34 21.4999 16.18 21.0299 17.58 20.0899C18.84 19.2399 19.54 18.0999 19.54 16.8599C19.53 15.6299 18.84 14.4899 17.58 13.6499Z" fill="#009369"/>
</g>
</g>
</svg>
