<svg width="29" height="29" viewBox="0 0 29 29" fill="none" xmlns="http://www.w3.org/2000/svg">
<path d="M6.26302 20.1441C3.45104 22.0265 3.45104 25.0941 6.26302 26.9648C9.45844 29.1029 14.6989 29.1029 17.8943 26.9648C20.7063 25.0824 20.7063 22.0148 17.8943 20.1441C14.7105 18.0177 9.47006 18.0177 6.26302 20.1441Z" fill="#FFC96E"/>
<path d="M12.0727 15.8564C11.9565 15.8448 11.8171 15.8448 11.6892 15.8564C8.92375 15.7634 6.72762 13.4976 6.72762 10.7089C6.72762 7.86204 9.02833 5.54971 11.8868 5.54971C14.7336 5.54971 17.0459 7.86204 17.0459 10.7089C17.0343 13.4976 14.8382 15.7634 12.0727 15.8564Z" fill="#FFC96E"/>
<g clip-path="url(#clip0_1907_5027)">
<path d="M14.3972 13.5325C14.281 13.5208 14.1416 13.5208 14.0137 13.5325C11.2483 13.4395 9.05213 11.1737 9.05213 8.38492C9.05213 5.53809 11.3528 3.22577 14.2113 3.22577C17.0581 3.22577 19.3704 5.53809 19.3704 8.38492C19.3588 11.1737 17.1627 13.4395 14.3972 13.5325Z" stroke="#133BB7" stroke-width="1.74296" stroke-linecap="round" stroke-linejoin="round"/>
<path d="M8.58724 17.8201C5.77527 19.7025 5.77527 22.7701 8.58724 24.6409C11.7827 26.7789 17.0232 26.7789 20.2186 24.6409C23.0305 22.7585 23.0305 19.6909 20.2186 17.8201C17.0348 15.6937 11.7943 15.6937 8.58724 17.8201Z" stroke="#133BB7" stroke-width="1.74296" stroke-linecap="round" stroke-linejoin="round"/>
</g>
<defs>
<clipPath id="clip0_1907_5027">
<rect width="27.8873" height="27.8873" fill="white" transform="translate(0.267563 0.901825)"/>
</clipPath>
</defs>
</svg>
