<svg width="25" height="24" viewBox="0 0 25 24" fill="none" xmlns="http://www.w3.org/2000/svg">
<g id="vuesax/linear/profile">
<g id="profile">
<path id="Vector" d="M12.6596 10.37C12.5596 10.36 12.4396 10.36 12.3296 10.37C9.94957 10.29 8.05957 8.34 8.05957 5.94C8.05957 3.49 10.0396 1.5 12.4996 1.5C14.9496 1.5 16.9396 3.49 16.9396 5.94C16.9296 8.34 15.0396 10.29 12.6596 10.37Z" stroke="#A7A9B7" stroke-width="1.5" stroke-linecap="round" stroke-linejoin="round"/>
<path id="Vector_2" d="M7.65973 14.06C5.23973 15.68 5.23973 18.32 7.65973 19.93C10.4097 21.77 14.9197 21.77 17.6697 19.93C20.0897 18.31 20.0897 15.67 17.6697 14.06C14.9297 12.23 10.4197 12.23 7.65973 14.06Z" stroke="#A7A9B7" stroke-width="1.5" stroke-linecap="round" stroke-linejoin="round"/>
</g>
</g>
</svg>
