<svg width="12" height="14" viewBox="0 0 12 14" fill="none" xmlns="http://www.w3.org/2000/svg">
<path d="M11.1208 7.68283H8.95091V0.676575C8.95091 0.538786 8.89617 0.406641 8.79874 0.30921C8.70131 0.211779 8.56917 0.157043 8.43138 0.157043H3.56827C3.43048 0.157043 3.29833 0.211779 3.2009 0.30921C3.10347 0.406641 3.04873 0.538786 3.04873 0.676575V7.68283H0.878579C0.7758 7.68273 0.675305 7.71315 0.589824 7.77022C0.504343 7.82728 0.437721 7.90843 0.398396 8.00339C0.359071 8.09835 0.348813 8.20284 0.36892 8.30364C0.389027 8.40443 0.438594 8.49699 0.511345 8.56959L5.63244 13.6907C5.68064 13.739 5.73788 13.7773 5.80089 13.8034C5.86391 13.8295 5.93146 13.843 5.99967 13.843C6.06789 13.843 6.13544 13.8295 6.19845 13.8034C6.26147 13.7773 6.31871 13.739 6.36691 13.6907L11.488 8.56959C11.5608 8.49699 11.6103 8.40443 11.6304 8.30364C11.6505 8.20284 11.6403 8.09835 11.6009 8.00339C11.5616 7.90843 11.495 7.82728 11.4095 7.77022C11.324 7.71315 11.2235 7.68273 11.1208 7.68283ZM5.99997 12.5899L2.13288 8.72189H3.56827C3.70603 8.72181 3.83813 8.66705 3.93554 8.56963C4.03296 8.47222 4.08772 8.34012 4.0878 8.20236V1.19492H7.91185V8.20354C7.91192 8.34131 7.96669 8.47341 8.0641 8.57082C8.16151 8.66823 8.29361 8.723 8.43138 8.72307H9.86647L5.99997 12.5899Z" fill="#A8AAB8"/>
</svg>
