<svg width="30" height="31" viewBox="0 0 30 31" fill="none" xmlns="http://www.w3.org/2000/svg">
<path d="M11.6667 30.1783C18.1102 30.1783 23.3333 24.9552 23.3333 18.5117C23.3333 12.0682 18.1102 6.845 11.6667 6.845C5.22318 6.845 7.62939e-06 12.0682 7.62939e-06 18.5117C7.62939e-06 24.9552 5.22318 30.1783 11.6667 30.1783Z" fill="#FFC96E"/>
<path d="M16 26.5117C22.4435 26.5117 27.6667 21.2885 27.6667 14.845C27.6667 8.40151 22.4435 3.17834 16 3.17834C9.55649 3.17834 4.33332 8.40151 4.33332 14.845C4.33332 21.2885 9.55649 26.5117 16 26.5117Z" stroke="#133BB7" stroke-width="2.33333" stroke-linejoin="round"/>
<path d="M21.25 13.095L16 18.345L10.75 13.095" stroke="#133BB7" stroke-width="2.33333" stroke-linecap="round" stroke-linejoin="round"/>
</svg>
