<svg width="66" height="66" viewBox="0 0 66 66" fill="none" xmlns="http://www.w3.org/2000/svg">
<g id="Layer_1">
<path id="Vector" d="M57.75 2.75H49.5C47.025 2.75 45.375 3.85 44.55 5.5C44.275 6.325 44 7.15 44 8.25V16.5C44 20.075 46.2 22 49.5 22H57.75C58.85 22 59.675 21.725 60.5 21.45C62.15 20.625 63.25 18.975 63.25 16.5V8.25C63.25 4.95 61.05 2.75 57.75 2.75ZM60.225 13.475C59.95 13.75 59.4 14.025 59.125 14.025H55.275V15.4V17.875C55.275 18.425 55 18.7 54.725 18.975C54.45 19.25 53.9 19.525 53.625 19.525C52.8 19.525 51.975 18.7 51.975 17.875V14.025H48.125C47.3 14.025 46.475 13.2 46.475 12.375C46.475 11.55 47.3 10.725 48.125 10.725H50.6H51.975V6.875C51.975 6.05 52.8 5.225 53.625 5.225C54.45 5.225 55.275 6.05 55.275 6.875V8.8V10.725H59.125C59.95 10.725 60.775 11.55 60.775 12.375C60.775 12.925 60.5 13.2 60.225 13.475Z" fill="white"/>
<path id="Vector_2" d="M24.7499 28.6C28.3249 28.6 31.3499 25.575 31.3499 22C31.3499 18.425 28.3249 15.4 24.7499 15.4C21.1749 15.4 18.1499 18.425 18.1499 22C18.1499 25.575 21.1749 28.6 24.7499 28.6Z" fill="white"/>
<path id="Vector_3" d="M57.75 22H56.375V34.65L56.1 34.375C53.9 32.45 50.6 32.45 48.4 34.375L36.85 44.275C34.65 46.2 31.35 46.2 29.15 44.275L28.325 43.45C26.4 41.8 23.375 41.525 21.175 43.175L11 50.05C10.45 48.4 10.175 46.75 10.175 44.55V21.45C9.625 13.75 13.75 9.625 21.45 9.625H44V8.25C44 7.15 44.275 6.325 44.55 5.5H21.45C11.55 5.5 5.5 11.55 5.5 21.45V44.55C5.5 47.575 6.05 50.05 7.15 52.25C9.625 57.475 14.575 60.5 21.725 60.5H44.825C54.725 60.5 60.775 54.45 60.775 44.55V21.45C59.675 21.725 58.85 22 57.75 22Z" fill="white"/>
</g>
</svg>
