<svg width="24" height="24" viewBox="0 0 24 24" fill="none" xmlns="http://www.w3.org/2000/svg">
<g id="Layer_1">
<g id="Group">
<g id="Group_2">
<path id="Vector" d="M23.5798 5.47969H6.72239C6.49036 5.47969 6.30225 5.6678 6.30225 5.89983V18.1001C6.30225 18.3322 6.49036 18.5203 6.72239 18.5203H19.8785C20.1105 18.5203 20.2986 18.3322 20.2986 18.1001C20.2986 17.8681 20.1105 17.68 19.8785 17.68H7.82193L13.5386 12.5637L14.8709 13.7561C14.9507 13.8275 15.0509 13.8632 15.1511 13.8632C15.2513 13.8632 15.3515 13.8275 15.4312 13.7561L16.7634 12.5639L22.4799 17.68H21.279C21.047 17.68 20.8589 17.8681 20.8589 18.1001C20.8589 18.3322 21.047 18.5203 21.279 18.5203H23.5798C23.8118 18.5203 23.9999 18.3322 23.9999 18.1001V5.89983C23.9999 5.6678 23.8118 5.47969 23.5798 5.47969ZM15.1511 12.8792L11.1073 9.2603C10.9344 9.10556 10.6687 9.12023 10.514 9.2932C10.3593 9.46612 10.3739 9.73172 10.5469 9.8865L12.9085 12L7.14253 17.1604V6.83976L9.47611 8.92819C9.55626 8.99995 9.65639 9.03525 9.75614 9.03525C9.8715 9.03525 9.98639 8.98805 10.0694 8.89533C10.2241 8.72241 10.2094 8.45681 10.0364 8.30208L7.82184 6.32016H22.4803L15.1511 12.8792ZM23.1597 17.1607L17.3935 12L23.1596 6.83967V17.1607H23.1597Z" fill="black"/>
</g>
</g>
<g id="Group_3">
<g id="Group_4">
<path id="Vector_2" d="M4.81753 6.9584H1.5405C1.30847 6.9584 1.12036 7.14651 1.12036 7.37855C1.12036 7.61058 1.30847 7.79869 1.5405 7.79869H4.81753C5.04956 7.79869 5.23767 7.61058 5.23767 7.37855C5.23767 7.14651 5.04956 6.9584 4.81753 6.9584Z" fill="black"/>
</g>
</g>
<g id="Group_5">
<g id="Group_6">
<path id="Vector_3" d="M5.09771 12.8402H2.1008C1.86877 12.8402 1.68066 13.0283 1.68066 13.2604C1.68066 13.4924 1.86877 13.6805 2.1008 13.6805H5.09771C5.32974 13.6805 5.51785 13.4924 5.51785 13.2604C5.5179 13.0283 5.32974 12.8402 5.09771 12.8402Z" fill="black"/>
</g>
</g>
<g id="Group_7">
<g id="Group_8">
<path id="Vector_4" d="M3.97725 10.3194H0.420141C0.188109 10.3194 0 10.5075 0 10.7396C0 10.9716 0.188109 11.1597 0.420141 11.1597H3.97725C4.20928 11.1597 4.39739 10.9716 4.39739 10.7396C4.39739 10.5075 4.20928 10.3194 3.97725 10.3194Z" fill="black"/>
</g>
</g>
<g id="Group_9">
<g id="Group_10">
<path id="Vector_5" d="M3.97737 16.2013H3.63279C3.40076 16.2013 3.21265 16.3894 3.21265 16.6215C3.21265 16.8535 3.40076 17.0416 3.63279 17.0416H3.97737C4.2094 17.0416 4.39751 16.8535 4.39751 16.6215C4.39755 16.3894 4.2094 16.2013 3.97737 16.2013Z" fill="black"/>
</g>
</g>
<g id="Group_11">
<g id="Group_12">
<path id="Vector_6" d="M2.23219 16.2013H0.420141C0.188109 16.2013 0 16.3894 0 16.6215C0 16.8535 0.188109 17.0416 0.420141 17.0416H2.23219C2.46422 17.0416 2.65233 16.8535 2.65233 16.6215C2.65233 16.3894 2.46422 16.2013 2.23219 16.2013Z" fill="black"/>
</g>
</g>
</g>
</svg>
