<svg width="24" height="24" viewBox="0 0 24 24" fill="none" xmlns="http://www.w3.org/2000/svg">
<g id="Frame" clip-path="url(#clip0_1382_1213)">
<g id="005---Passport-&#38;-ID">
<path id="Shape" d="M10.9401 6H9V7.71429H11.1321C11.1139 7.13865 11.0497 6.5654 10.9401 6Z" fill="#133BB7"/>
<path id="Shape_2" d="M11.1321 8.57143H9V10.2857H10.9401C11.0497 9.72032 11.1139 9.14706 11.1321 8.57143Z" fill="#133BB7"/>
<path id="Shape_3" d="M9 2.66143V5.14286H10.7259C10.3217 3.81943 9.67286 2.93143 9 2.66143Z" fill="#133BB7"/>
<path id="Shape_4" d="M10.623 13.3179C11.7069 12.8854 12.6285 12.1249 13.2588 11.1429H11.6143C11.4146 11.9206 11.079 12.6569 10.623 13.3179Z" fill="#133BB7"/>
<path id="Shape_5" d="M10.7259 11.1429H9V13.6243C9.67286 13.3543 10.3217 12.4663 10.7259 11.1429Z" fill="#133BB7"/>
<path id="Shape_6" d="M11.8081 10.2857H13.7144C13.9412 9.73977 14.0789 9.161 14.1224 8.57143H11.989C11.9709 9.14652 11.9104 9.71951 11.8081 10.2857Z" fill="#133BB7"/>
<path id="Shape_7" d="M6.01074 7.71429H8.14289V6H6.20274C6.09315 6.5654 6.02895 7.13865 6.01074 7.71429Z" fill="#133BB7"/>
<path id="Shape_8" d="M8.14285 5.14286V2.66143C7.46999 2.93143 6.82114 3.81857 6.41699 5.14286H8.14285Z" fill="#133BB7"/>
<path id="Shape_9" d="M11.989 7.71429H14.1211C14.078 7.12479 13.9407 6.54601 13.7144 6H11.8081C11.9104 6.56621 11.9709 7.13919 11.989 7.71429Z" fill="#133BB7"/>
<path id="Shape_10" d="M13.2588 5.14286C12.6285 4.16077 11.7069 3.4003 10.623 2.96786C11.079 3.62882 11.4146 4.36514 11.6143 5.14286H13.2588Z" fill="#133BB7"/>
<path id="Shape_11" d="M3 18.4286V19.2857C3 19.5224 3.19188 19.7143 3.42857 19.7143H10.2857V18H3.42857C3.19188 18 3 18.1919 3 18.4286Z" fill="#133BB7"/>
<path id="Shape_12" d="M5.33479 6H3.42851C3.20173 6.54594 3.06398 7.12472 3.02051 7.71429H5.15265C5.17116 7.13916 5.23204 6.56618 5.33479 6Z" fill="#133BB7"/>
<path id="Shape_13" d="M5.33497 10.2857C5.23265 9.71951 5.1722 9.14652 5.15412 8.57143H3.02197C3.06503 9.16092 3.20235 9.7397 3.42869 10.2857H5.33497Z" fill="#133BB7"/>
<path id="Shape_14" d="M11.1431 16.2857V23.1429C11.1431 23.6162 11.5268 24 12.0002 24H23.1431C23.6165 24 24.0002 23.6162 24.0002 23.1429V16.2857C24.0002 15.8123 23.6165 15.4286 23.1431 15.4286H12.0002C11.5268 15.4286 11.1431 15.8123 11.1431 16.2857ZM17.5716 16.7143H22.2859C22.5226 16.7143 22.7145 16.9062 22.7145 17.1429C22.7145 17.3796 22.5226 17.5714 22.2859 17.5714H17.5716C17.3349 17.5714 17.1431 17.3796 17.1431 17.1429C17.1431 16.9062 17.3349 16.7143 17.5716 16.7143ZM17.5716 18.4286H22.2859C22.5226 18.4286 22.7145 18.6204 22.7145 18.8571C22.7145 19.0938 22.5226 19.2857 22.2859 19.2857H17.5716C17.3349 19.2857 17.1431 19.0938 17.1431 18.8571C17.1431 18.6204 17.3349 18.4286 17.5716 18.4286ZM17.5716 20.1429H22.2859C22.5226 20.1429 22.7145 20.3347 22.7145 20.5714C22.7145 20.8081 22.5226 21 22.2859 21H17.5716C17.3349 21 17.1431 20.8081 17.1431 20.5714C17.1431 20.3347 17.3349 20.1429 17.5716 20.1429ZM17.5716 21.8571H19.7145C19.9512 21.8571 20.1431 22.049 20.1431 22.2857C20.1431 22.5224 19.9512 22.7143 19.7145 22.7143H17.5716C17.3349 22.7143 17.1431 22.5224 17.1431 22.2857C17.1431 22.049 17.3349 21.8571 17.5716 21.8571ZM14.1431 16.2857C14.8387 16.2872 15.4645 16.7089 15.727 17.3532C15.9894 17.9974 15.8366 18.7363 15.3401 19.2236C15.9311 19.6216 16.2856 20.2874 16.2859 21V22.2857C16.2859 22.7591 15.9022 23.1429 15.4288 23.1429H12.8574C12.384 23.1429 12.0002 22.7591 12.0002 22.2857V21C12.0005 20.2874 12.355 19.6216 12.9461 19.2236C12.4496 18.7363 12.2967 17.9974 12.5592 17.3532C12.8217 16.7089 13.4474 16.2872 14.1431 16.2857Z" fill="#133BB7"/>
<path id="Shape_15" d="M3.88428 11.1429C4.51457 12.1249 5.43613 12.8854 6.51999 13.3179C6.06405 12.6569 5.72847 11.9206 5.52871 11.1429H3.88428Z" fill="#133BB7"/>
<path id="Shape_16" d="M6.51999 2.96786C5.43613 3.4003 4.51457 4.16077 3.88428 5.14286H5.52871C5.72847 4.36514 6.06405 3.62882 6.51999 2.96786Z" fill="#133BB7"/>
<path id="Shape_17" d="M12.8569 22.2857H15.4284V21C15.4284 20.2899 14.8527 19.7143 14.1426 19.7143C13.4326 19.7143 12.8569 20.2899 12.8569 21V22.2857Z" fill="#133BB7"/>
<path id="Shape_18" d="M6.20274 10.2857H8.14289V8.57143H6.01074C6.02895 9.14706 6.09315 9.72032 6.20274 10.2857Z" fill="#133BB7"/>
<path id="Shape_19" d="M8.14285 13.6243V11.1429H6.41699C6.82114 12.4663 7.46999 13.3543 8.14285 13.6243Z" fill="#133BB7"/>
<path id="Oval" d="M14.1428 18.8571C14.6162 18.8571 14.9999 18.4734 14.9999 18C14.9999 17.5266 14.6162 17.1429 14.1428 17.1429C13.6694 17.1429 13.2856 17.5266 13.2856 18C13.2856 18.4734 13.6694 18.8571 14.1428 18.8571Z" fill="#133BB7"/>
<path id="Shape_20" d="M0.428571 24H10.524C10.3697 23.7406 10.2875 23.4447 10.2857 23.1429V20.5714H3.42857C2.71849 20.5714 2.14286 19.9958 2.14286 19.2857V18.4286C2.14286 17.7185 2.71849 17.1429 3.42857 17.1429H10.2857V16.2857C10.2857 15.3389 11.0532 14.5714 12 14.5714H17.1429V2.14286C17.1414 0.959977 16.1829 0.00141691 15 0H0.428571C0.191878 0 0 0.191878 0 0.428571V23.5714C0 23.8081 0.191878 24 0.428571 24ZM2.74886 5.43557C2.75852 5.40896 2.77087 5.3834 2.78571 5.35929C3.85385 3.13427 6.1033 1.71891 8.57143 1.71891C11.0396 1.71891 13.289 3.13427 14.3571 5.35929C14.372 5.3834 14.3843 5.40896 14.394 5.43557C15.2021 7.14998 15.2021 9.13574 14.394 10.8501C14.3843 10.8768 14.372 10.9023 14.3571 10.9264C13.289 13.1514 11.0396 14.5668 8.57143 14.5668C6.1033 14.5668 3.85385 13.1514 2.78571 10.9264C2.77087 10.9023 2.75852 10.8768 2.74886 10.8501C1.94077 9.13574 1.94077 7.14998 2.74886 5.43557Z" fill="#133BB7"/>
</g>
</g>
<defs>
<clipPath id="clip0_1382_1213">
<rect width="24" height="24" fill="white"/>
</clipPath>
</defs>
</svg>
