<svg width="28" height="28" viewBox="0 0 28 28" fill="none" xmlns="http://www.w3.org/2000/svg">
<g id="vuesax/bold/tick-circle">
<g id="tick-circle">
<path id="Vector" d="M13.9437 2.32394C7.54122 2.32394 2.32397 7.54119 2.32397 13.9437C2.32397 20.3461 7.54122 25.5634 13.9437 25.5634C20.3461 25.5634 25.5634 20.3461 25.5634 13.9437C25.5634 7.54119 20.3461 2.32394 13.9437 2.32394ZM19.4979 11.2711L12.9095 17.8595C12.7469 18.0222 12.5261 18.1151 12.2937 18.1151C12.0613 18.1151 11.8405 18.0222 11.6778 17.8595L8.38946 14.5711C8.05249 14.2341 8.05249 13.6764 8.38946 13.3394C8.72644 13.0025 9.28418 13.0025 9.62115 13.3394L12.2937 16.012L18.2662 10.0394C18.6032 9.70246 19.1609 9.70246 19.4979 10.0394C19.8349 10.3764 19.8349 10.9225 19.4979 11.2711Z" fill="#00D261"/>
</g>
</g>
</svg>
