<svg width="18" height="18" viewBox="0 0 18 18" fill="none" xmlns="http://www.w3.org/2000/svg">
<g id="kg_2ep4mrz68elj 1" clip-path="url(#clip0_1580_1777)">
<path id="Vector" d="M9 5.25C7.5525 5.25 6.375 4.0725 6.375 2.625C6.375 1.1775 7.5525 0 9 0C10.4475 0 11.625 1.1775 11.625 2.625C11.625 4.0725 10.4475 5.25 9 5.25ZM9 1.125C8.17275 1.125 7.5 1.79775 7.5 2.625C7.5 3.45225 8.17275 4.125 9 4.125C9.82725 4.125 10.5 3.45225 10.5 2.625C10.5 1.79775 9.82725 1.125 9 1.125Z" fill="#A8AAB8"/>
<path id="Vector_2" d="M16.5392 18H1.46122C1.07047 18 0.702974 17.8282 0.453224 17.5282C0.203474 17.229 0.099974 16.8368 0.169724 16.4528L2.14672 5.57775C2.26072 4.953 2.80372 4.5 3.43822 4.5H14.5615C15.196 4.5 15.739 4.953 15.853 5.57775L17.83 16.4528C17.8997 16.8368 17.797 17.229 17.5465 17.5282C17.2967 17.8282 16.9292 18 16.5392 18Z" fill="#A8AAB8"/>
<g id="Group">
<path id="Vector_3" d="M5.0625 14.25C4.752 14.25 4.5 13.998 4.5 13.6875V8.8125C4.5 8.502 4.752 8.25 5.0625 8.25C5.373 8.25 5.625 8.502 5.625 8.8125V13.6875C5.625 13.998 5.373 14.25 5.0625 14.25Z" fill="#EAEAEA"/>
<path id="Vector_4" d="M11.625 14.25C10.5915 14.25 9.75 13.4085 9.75 12.375V10.125C9.75 9.0915 10.5915 8.25 11.625 8.25C12.6585 8.25 13.5 9.0915 13.5 10.125V10.3125C13.5 10.623 13.248 10.875 12.9375 10.875C12.627 10.875 12.375 10.623 12.375 10.3125V10.125C12.375 9.71175 12.0382 9.375 11.625 9.375C11.2117 9.375 10.875 9.71175 10.875 10.125V12.375C10.875 12.7882 11.2117 13.125 11.625 13.125C12.0382 13.125 12.375 12.7882 12.375 12.375H11.8125C11.502 12.375 11.25 12.123 11.25 11.8125C11.25 11.502 11.502 11.25 11.8125 11.25H12.9375C13.248 11.25 13.5 11.502 13.5 11.8125V12.375C13.5 13.4085 12.6585 14.25 11.625 14.25Z" fill="#EAEAEA"/>
<path id="Vector_5" d="M7.68751 14.2967C7.54876 14.2967 7.40926 14.2457 7.30051 14.1429L4.67551 11.6589C4.56301 11.5517 4.49926 11.4032 4.50001 11.2479C4.50076 11.0919 4.56601 10.9442 4.68001 10.8384L7.30501 8.40095C7.53301 8.18945 7.88851 8.20295 8.10001 8.43095C8.31151 8.6582 8.29801 9.01445 8.07001 9.22595L5.88451 11.2554L8.07376 13.3269C8.29951 13.5407 8.30926 13.8969 8.09551 14.1227C7.98526 14.2382 7.83676 14.2967 7.68751 14.2967Z" fill="#EAEAEA"/>
</g>
</g>
<defs>
<clipPath id="clip0_1580_1777">
<rect width="18" height="18" fill="white"/>
</clipPath>
</defs>
</svg>
